Diplomata-Regular.otf.ufo
<glyph name="exclam" format="1">
  <advance width="679"/>
  <unicode hex="0021"/>
  <outline>
    <contour>
      <point x="568" y="113" type="curve"/>
      <point x="568" y="190" smooth="yes"/>
      <point x="465" y="252" smooth="yes"/>
      <point x="339" y="252" type="curve" smooth="yes"/>
      <point x="211" y="252" smooth="yes"/>
      <point x="109" y="190" smooth="yes"/>
      <point x="109" y="113" type="curve" smooth="yes"/>
      <point x="109" y="36" smooth="yes"/>
      <point x="211" y="-26" smooth="yes"/>
      <point x="339" y="-26" type="curve" smooth="yes"/>
      <point x="465" y="-26" smooth="yes"/>
      <point x="568" y="36" smooth="yes"/>
    </contour>
    <contour>
      <point x="538" y="682" type="curve"/>
      <point x="538" y="760" smooth="yes"/>
      <point x="465" y="801" smooth="yes"/>
      <point x="339" y="801" type="curve" smooth="yes"/>
      <point x="211" y="801" smooth="yes"/>
      <point x="140" y="760" smooth="yes"/>
      <point x="140" y="682" type="curve" smooth="yes" name="hr01"/>
      <point x="140" y="606" smooth="yes"/>
      <point x="292" y="297" smooth="yes"/>
      <point x="339" y="297" type="curve" smooth="yes"/>
      <point x="387" y="297" smooth="yes"/>
      <point x="538" y="606" smooth="yes"/>
    </contour>
    <contour>
      <point x="303" y="750" type="line"/>
      <point x="278" y="741" smooth="yes"/>
      <point x="255" y="723" smooth="yes"/>
      <point x="255" y="706" type="curve" smooth="yes"/>
      <point x="256" y="660"/>
      <point x="320" y="499"/>
      <point x="369" y="400" type="curve"/>
      <point x="339" y="352" type="line"/>
      <point x="288" y="441" smooth="yes"/>
      <point x="207" y="641" smooth="yes"/>
      <point x="207" y="695" type="curve" smooth="yes"/>
      <point x="207" y="728"/>
      <point x="250" y="750"/>
      <point x="299" y="759" type="curve"/>
    </contour>
    <contour>
      <point x="237" y="113" type="curve" smooth="yes"/>
      <point x="237" y="77"/>
      <point x="253" y="44"/>
      <point x="277" y="21" type="curve"/>
      <point x="274" y="16" type="line"/>
      <point x="220" y="36" smooth="yes"/>
      <point x="183" y="73" smooth="yes"/>
      <point x="183" y="113" type="curve" smooth="yes" name="hr02"/>
      <point x="183" y="153"/>
      <point x="220" y="190"/>
      <point x="274" y="210" type="curve"/>
      <point x="277" y="205" type="line"/>
      <point x="253" y="182" smooth="yes"/>
      <point x="237" y="149" smooth="yes"/>
    </contour>
  </outline>
</glyph>
<glyph name="numbersign" format="1">
  <advance width="840"/>
  <unicode hex="0023"/>
  <outline>
    <contour>
      <point x="410" y="700" type="line" name="hr00"/>
      <point x="330" y="700" type="line"/>
      <point x="129" y="-50" type="line"/>
      <point x="209" y="-50" type="line"/>
    </contour>
    <contour>
      <point x="710" y="700" type="line"/>
      <point x="630" y="700" type="line"/>
      <point x="429" y="-50" type="line"/>
      <point x="509" y="-50" type="line"/>
    </contour>
    <contour>
      <point x="71" y="235" type="line"/>
      <point x="50" y="155" type="line"/>
      <point x="699" y="155" type="line"/>
      <point x="720" y="235" type="line"/>
    </contour>
    <contour>
      <point x="140" y="495" type="line"/>
      <point x="119" y="415" type="line"/>
      <point x="769" y="415" type="line"/>
      <point x="790" y="495" type="line"/>
    </contour>
  </outline>
</glyph>
<glyph name="parenleft" format="1">
  <advance width="805"/>
  <unicode hex="0028"/>
  <outline>
    <contour>
      <point x="498" y="312" type="curve" smooth="yes" name="hr00"/>
      <point x="498" y="667"/>
      <point x="684" y="683"/>
      <point x="684" y="683" type="curve"/>
      <point x="684" y="737" type="line"/>
      <point x="334" y="684" smooth="yes"/>
      <point x="120" y="526" smooth="yes"/>
      <point x="120" y="310" type="curve" smooth="yes"/>
      <point x="120" y="94"/>
      <point x="334" y="-64"/>
      <point x="684" y="-117" type="curve"/>
      <point x="684" y="-63" type="line"/>
      <point x="684" y="-63" smooth="yes"/>
      <point x="498" y="-47" smooth="yes"/>
    </contour>
    <contour>
      <point x="183" y="310" type="curve" smooth="yes"/>
      <point x="183" y="472"/>
      <point x="327" y="597"/>
      <point x="539" y="669" type="curve"/>
      <point x="542" y="662" type="line"/>
      <point x="383" y="590" smooth="yes"/>
      <point x="256" y="469" smooth="yes"/>
      <point x="256" y="310" type="curve" smooth="yes"/>
      <point x="256" y="151"/>
      <point x="383" y="30"/>
      <point x="542" y="-42" type="curve"/>
      <point x="539" y="-49" type="line"/>
      <point x="327" y="23" smooth="yes"/>
      <point x="183" y="148" smooth="yes"/>
    </contour>
  </outline>
</glyph>
<glyph name="asterisk" format="1">
  <advance width="676"/>
  <unicode hex="002A"/>
  <outline>
    <contour>
      <point x="442" y="740" type="curve" smooth="yes"/>
      <point x="442" y="699" smooth="yes"/>
      <point x="364" y="539" smooth="yes"/>
      <point x="338" y="539" type="curve" smooth="yes"/>
      <point x="314" y="539" smooth="yes"/>
      <point x="235" y="699" smooth="yes"/>
      <point x="235" y="740" type="curve" smooth="yes"/>
      <point x="235" y="780" smooth="yes"/>
      <point x="272" y="801" smooth="yes"/>
      <point x="338" y="801" type="curve" smooth="yes"/>
      <point x="404" y="801" smooth="yes"/>
      <point x="442" y="780" smooth="yes"/>
    </contour>
    <contour>
      <point x="310" y="522" type="curve" smooth="yes"/>
      <point x="310" y="499" smooth="yes"/>
      <point x="185" y="480" smooth="yes"/>
      <point x="121" y="480" type="curve" smooth="yes"/>
      <point x="76" y="480" smooth="yes"/>
      <point x="50" y="500" smooth="yes"/>
      <point x="50" y="542" type="curve" smooth="yes"/>
      <point x="50" y="626" smooth="yes"/>
      <point x="101" y="683" smooth="yes"/>
      <point x="135" y="683" type="curve" smooth="yes"/>
      <point x="177" y="683" smooth="yes"/>
      <point x="310" y="554" smooth="yes"/>
    </contour>
    <contour>
      <point x="366" y="522" type="curve" smooth="yes"/>
      <point x="366" y="554" smooth="yes"/>
      <point x="499" y="683" smooth="yes"/>
      <point x="541" y="683" type="curve" smooth="yes"/>
      <point x="575" y="683" smooth="yes"/>
      <point x="626" y="626" smooth="yes"/>
      <point x="626" y="542" type="curve" smooth="yes"/>
      <point x="626" y="500" smooth="yes"/>
      <point x="600" y="480" smooth="yes"/>
      <point x="555" y="480" type="curve" smooth="yes"/>
      <point x="491" y="480" smooth="yes"/>
      <point x="366" y="499" smooth="yes"/>
    </contour>
    <contour>
      <point x="328" y="451" type="curve" smooth="yes"/>
      <point x="328" y="390" smooth="yes"/>
      <point x="303" y="274" smooth="yes"/>
      <point x="275" y="251" type="curve" smooth="yes"/>
      <point x="268" y="245" smooth="yes"/>
      <point x="257" y="243" smooth="yes"/>
      <point x="245" y="243" type="curve" smooth="yes"/>
      <point x="210" y="243" smooth="yes"/>
      <point x="160" y="265" smooth="yes"/>
      <point x="124" y="315" type="curve" smooth="yes"/>
      <point x="114" y="328" smooth="yes"/>
      <point x="110" y="340" smooth="yes"/>
      <point x="110" y="352" type="curve" smooth="yes"/>
      <point x="110" y="414" smooth="yes"/>
      <point x="282" y="487" smooth="yes"/>
      <point x="315" y="487" type="curve" smooth="yes"/>
      <point x="327" y="487" smooth="yes"/>
      <point x="328" y="461" smooth="yes"/>
    </contour>
    <contour>
      <point x="364" y="488" type="curve" smooth="yes"/>
      <point x="405" y="488" smooth="yes"/>
      <point x="553" y="408" smooth="yes"/>
      <point x="565" y="370" type="curve" smooth="yes"/>
      <point x="566" y="366" smooth="yes"/>
      <point x="567" y="362" smooth="yes"/>
      <point x="567" y="358" type="curve" smooth="yes"/>
      <point x="567" y="324" smooth="yes"/>
      <point x="528" y="269" smooth="yes"/>
      <point x="457" y="246" type="curve" smooth="yes"/>
      <point x="449" y="243" smooth="yes"/>
      <point x="441" y="242" smooth="yes"/>
      <point x="434" y="242" type="curve" smooth="yes"/>
      <point x="407" y="242" smooth="yes"/>
      <point x="387" y="261" smooth="yes"/>
      <point x="377" y="294" type="curve" smooth="yes"/>
      <point x="363" y="337" smooth="yes"/>
      <point x="349" y="410" smooth="yes"/>
      <point x="349" y="453" type="curve" smooth="yes"/>
      <point x="349" y="468" smooth="yes"/>
      <point x="349" y="488" smooth="yes"/>
    </contour>
    <contour>
      <point x="310" y="784" type="line"/>
      <point x="282" y="779" smooth="yes"/>
      <point x="269" y="764" smooth="yes"/>
      <point x="269" y="745" type="curve" smooth="yes"/>
      <point x="269" y="716"/>
      <point x="311" y="615"/>
      <point x="338" y="567" type="curve"/>
      <point x="358" y="598" type="line"/>
      <point x="332" y="651" smooth="yes"/>
      <point x="300" y="728" smooth="yes"/>
      <point x="299" y="751" type="curve" smooth="yes"/>
      <point x="299" y="758"/>
      <point x="303" y="768"/>
      <point x="313" y="775" type="curve"/>
    </contour>
    <contour>
      <point x="70" y="568" type="line"/>
      <point x="70" y="566" smooth="yes"/>
      <point x="69" y="562" smooth="yes"/>
      <point x="69" y="557" type="curve" smooth="yes"/>
      <point x="69" y="521" smooth="yes"/>
      <point x="96" y="512" smooth="yes"/>
      <point x="135" y="512" type="curve" smooth="yes"/>
      <point x="181" y="512"/>
      <point x="244" y="519"/>
      <point x="284" y="528" type="curve"/>
      <point x="261" y="556" type="line"/>
      <point x="221" y="550" smooth="yes"/>
      <point x="173" y="544" smooth="yes"/>
      <point x="134" y="544" type="curve" smooth="yes"/>
      <point x="112" y="544"/>
      <point x="86" y="545"/>
      <point x="81" y="569" type="curve"/>
    </contour>
    <contour>
      <point x="164" y="310" type="line" name="hr01"/>
      <point x="161" y="316" smooth="yes"/>
      <point x="161" y="319" smooth="yes"/>
      <point x="161" y="323" type="curve" smooth="yes"/>
      <point x="161" y="354"/>
      <point x="279" y="416"/>
      <point x="303" y="427" type="curve"/>
      <point x="305" y="464" type="line"/>
      <point x="204" y="412" smooth="yes"/>
      <point x="138" y="372" smooth="yes"/>
      <point x="138" y="339" type="curve" smooth="yes"/>
      <point x="138" y="324"/>
      <point x="146" y="315"/>
      <point x="154" y="307" type="curve"/>
    </contour>
    <contour>
      <point x="476" y="282" type="line"/>
      <point x="439" y="282"/>
      <point x="416" y="368"/>
      <point x="406" y="451" type="curve"/>
      <point x="372" y="464" type="line"/>
      <point x="379" y="392" smooth="yes"/>
      <point x="402" y="266" smooth="yes"/>
      <point x="451" y="266" type="curve" smooth="yes"/>
      <point x="462" y="266"/>
      <point x="469" y="268"/>
      <point x="476" y="272" type="curve"/>
    </contour>
    <contour>
      <point x="596" y="570" type="line"/>
      <point x="591" y="545" smooth="yes"/>
      <point x="564" y="544" smooth="yes"/>
      <point x="542" y="544" type="curve" smooth="yes"/>
      <point x="503" y="544"/>
      <point x="455" y="550"/>
      <point x="415" y="556" type="curve"/>
      <point x="392" y="528" type="line"/>
      <point x="432" y="519" smooth="yes"/>
      <point x="495" y="512" smooth="yes"/>
      <point x="541" y="512" type="curve" smooth="yes"/>
      <point x="584" y="512" smooth="yes"/>
      <point x="607" y="521" smooth="yes"/>
      <point x="607" y="555" type="curve" smooth="yes"/>
      <point x="607" y="559"/>
      <point x="607" y="562"/>
      <point x="606" y="568" type="curve"/>
    </contour>
  </outline>
</glyph>
<glyph name="comma" format="1">
  <advance width="595"/>
  <unicode hex="002C"/>
  <outline>
    <contour>
      <point x="181" y="103" type="curve" smooth="yes" name="hr00"/>
      <point x="181" y="70"/>
      <point x="196" y="40"/>
      <point x="218" y="19" type="curve"/>
      <point x="215" y="15" type="line"/>
      <point x="166" y="33" smooth="yes"/>
      <point x="132" y="67" smooth="yes"/>
      <point x="132" y="103" type="curve" smooth="yes"/>
      <point x="132" y="139"/>
      <point x="166" y="173"/>
      <point x="215" y="191" type="curve"/>
      <point x="218" y="187" type="line"/>
      <point x="196" y="166" smooth="yes"/>
      <point x="181" y="136" smooth="yes"/>
    </contour>
    <contour>
      <point x="297" y="229" type="curve" smooth="yes"/>
      <point x="183" y="229" smooth="yes"/>
      <point x="91" y="172" smooth="yes"/>
      <point x="91" y="103" type="curve" smooth="yes"/>
      <point x="91" y="34" smooth="yes"/>
      <point x="183" y="-22" smooth="yes"/>
      <point x="297" y="-22" type="curve" smooth="yes"/>
      <point x="333" y="-22"/>
      <point x="366" y="-15"/>
      <point x="396" y="-5" type="curve"/>
      <point x="377" y="-100"/>
      <point x="208" y="-114"/>
      <point x="129" y="-114" type="curve"/>
      <point x="129" y="-151" type="line"/>
      <point x="384" y="-151" smooth="yes"/>
      <point x="495" y="-34" smooth="yes"/>
      <point x="495" y="70" type="curve" smooth="yes"/>
      <point x="495" y="154" smooth="yes"/>
      <point x="424" y="229" smooth="yes"/>
    </contour>
  </outline>
</glyph>
<glyph name="slash" format="1">
  <advance width="582"/>
  <unicode hex="002F"/>
  <outline>
    <contour>
      <point x="132" y="-52" type="line" name="hr00"/>
      <point x="532" y="670" type="line"/>
      <point x="450" y="670" type="line"/>
      <point x="50" y="-52" type="line"/>
    </contour>
  </outline>
</glyph>
<glyph name="zero" format="1">
  <advance width="1038"/>
  <unicode hex="0030"/>
  <outline>
    <contour>
      <point x="1011" y="326" type="curve" smooth="yes"/>
      <point x="1011" y="133" smooth="yes"/>
      <point x="791" y="-22" smooth="yes"/>
      <point x="519" y="-22" type="curve" smooth="yes"/>
      <point x="247" y="-22" smooth="yes"/>
      <point x="27" y="133" smooth="yes"/>
      <point x="27" y="326" type="curve" smooth="yes"/>
      <point x="27" y="516" smooth="yes"/>
      <point x="218" y="670" smooth="yes"/>
      <point x="519" y="670" type="curve" smooth="yes"/>
      <point x="821" y="670" smooth="yes"/>
      <point x="1011" y="516" smooth="yes"/>
    </contour>
    <contour>
      <point x="519" y="629" type="curve" smooth="yes"/>
      <point x="395" y="629" smooth="yes"/>
      <point x="362" y="525" smooth="yes"/>
      <point x="362" y="324" type="curve" smooth="yes"/>
      <point x="362" y="124" smooth="yes"/>
      <point x="420" y="19" smooth="yes"/>
      <point x="519" y="19" type="curve" smooth="yes"/>
      <point x="617" y="19" smooth="yes"/>
      <point x="676" y="124" smooth="yes"/>
      <point x="676" y="324" type="curve" smooth="yes"/>
      <point x="676" y="525" smooth="yes"/>
      <point x="643" y="629" smooth="yes"/>
    </contour>
    <contour>
      <point x="122" y="325" type="curve" smooth="yes"/>
      <point x="122" y="447"/>
      <point x="195" y="549"/>
      <point x="301" y="607" type="curve"/>
      <point x="299" y="612" type="line"/>
      <point x="160" y="556" smooth="yes"/>
      <point x="67" y="449" smooth="yes"/>
      <point x="67" y="325" type="curve" smooth="yes"/>
      <point x="67" y="202"/>
      <point x="160" y="95"/>
      <point x="299" y="39" type="curve"/>
      <point x="301" y="44" type="line"/>
      <point x="195" y="102" smooth="yes"/>
      <point x="122" y="204" smooth="yes"/>
    </contour>
    <contour>
      <point x="794" y="325" type="curve" smooth="yes"/>
      <point x="794" y="434"/>
      <point x="748" y="542"/>
      <point x="693" y="601" type="curve"/>
      <point x="688" y="598" type="line"/>
      <point x="720" y="518" smooth="yes"/>
      <point x="737" y="427" smooth="yes"/>
      <point x="737" y="325" type="curve" smooth="yes"/>
      <point x="737" y="224"/>
      <point x="720" y="133"/>
      <point x="688" y="53" type="curve" name="hr01"/>
      <point x="693" y="50" type="line"/>
      <point x="748" y="109" smooth="yes"/>
      <point x="794" y="217" smooth="yes"/>
    </contour>
  </outline>
</glyph>
<glyph name="one" format="1">
  <advance width="925"/>
  <unicode hex="0031"/>
  <outline>
    <contour>
      <point x="868" y="607" type="line" name="hr00"/>
      <point x="868" y="650" type="line"/>
      <point x="377" y="650" type="line"/>
      <point x="57" y="450" type="line"/>
      <point x="99" y="399" type="line"/>
      <point x="358" y="578" type="line"/>
      <point x="358" y="578" smooth="yes"/>
      <point x="337" y="526" smooth="yes"/>
      <point x="337" y="433" type="curve" smooth="yes"/>
      <point x="337" y="152" type="line" smooth="yes"/>
      <point x="337" y="72" smooth="yes"/>
      <point x="288" y="43" smooth="yes"/>
      <point x="229" y="43" type="curve" smooth="yes"/>
      <point x="151" y="43" type="line"/>
      <point x="151" y="0" type="line"/>
      <point x="868" y="0" type="line"/>
      <point x="868" y="43" type="line"/>
      <point x="790" y="43" type="line" smooth="yes"/>
      <point x="731" y="43" smooth="yes"/>
      <point x="682" y="72" smooth="yes"/>
      <point x="682" y="152" type="curve" smooth="yes"/>
      <point x="682" y="497" type="line" smooth="yes"/>
      <point x="682" y="557" smooth="yes"/>
      <point x="731" y="607" smooth="yes"/>
      <point x="790" y="607" type="curve" smooth="yes"/>
    </contour>
    <contour>
      <point x="469" y="43" type="line"/>
      <point x="404" y="43" type="line"/>
      <point x="404" y="607" type="line"/>
      <point x="469" y="607" type="line"/>
    </contour>
  </outline>
</glyph>
<glyph name="four" format="1">
  <advance width="1012"/>
  <unicode hex="0034"/>
  <outline>
    <contour>
      <point x="956" y="178" type="line" name="hr00"/>
      <point x="956" y="220" type="line"/>
      <point x="769" y="220" type="line"/>
      <point x="769" y="497" type="line" smooth="yes"/>
      <point x="769" y="557" smooth="yes"/>
      <point x="818" y="607" smooth="yes"/>
      <point x="877" y="607" type="curve" smooth="yes"/>
      <point x="955" y="607" type="line"/>
      <point x="955" y="650" type="line"/>
      <point x="464" y="650" type="line"/>
      <point x="57" y="220" type="line"/>
      <point x="57" y="178" type="line"/>
      <point x="424" y="178" type="line"/>
      <point x="424" y="162"/>
      <point x="424" y="151"/>
      <point x="424" y="151" type="curve"/>
      <point x="424" y="71" smooth="yes"/>
      <point x="375" y="43" smooth="yes"/>
      <point x="315" y="43" type="curve" smooth="yes"/>
      <point x="238" y="43" type="line"/>
      <point x="238" y="0" type="line"/>
      <point x="955" y="0" type="line"/>
      <point x="955" y="43" type="line"/>
      <point x="877" y="43" type="line" smooth="yes"/>
      <point x="818" y="43" smooth="yes"/>
      <point x="769" y="71" smooth="yes"/>
      <point x="769" y="151" type="curve" smooth="yes"/>
      <point x="769" y="178" type="line"/>
    </contour>
    <contour>
      <point x="143" y="220" type="line"/>
      <point x="445" y="570" type="line"/>
      <point x="445" y="570" smooth="yes"/>
      <point x="424" y="518" smooth="yes"/>
      <point x="424" y="425" type="curve" smooth="yes"/>
      <point x="424" y="220" type="line"/>
    </contour>
    <contour>
      <point x="556" y="42" type="line"/>
      <point x="491" y="42" type="line"/>
      <point x="491" y="607" type="line"/>
      <point x="556" y="607" type="line"/>
    </contour>
  </outline>
</glyph>
<glyph name="six" format="1">
  <advance width="1097"/>
  <unicode hex="0036"/>
  <outline>
    <contour>
      <point x="909" y="643" type="line"/>
      <point x="943" y="643" type="line"/>
      <point x="943" y="476" type="line"/>
      <point x="909" y="476" type="line" smooth="yes"/>
      <point x="909" y="476" smooth="yes"/>
      <point x="752" y="630" smooth="yes"/>
      <point x="600" y="630" type="curve" smooth="yes"/>
      <point x="447" y="630" smooth="yes"/>
      <point x="394" y="522" smooth="yes"/>
      <point x="394" y="358" type="curve" smooth="yes"/>
      <point x="394" y="358" smooth="yes"/>
      <point x="529" y="421" smooth="yes"/>
      <point x="688" y="421" type="curve" smooth="yes"/>
      <point x="846" y="421" smooth="yes"/>
      <point x="1040" y="352" smooth="yes"/>
      <point x="1040" y="217" type="curve" smooth="yes"/>
      <point x="1040" y="50" smooth="yes"/>
      <point x="781" y="-22" smooth="yes"/>
      <point x="541" y="-22" type="curve" smooth="yes"/>
      <point x="301" y="-22" smooth="yes"/>
      <point x="57" y="114" smooth="yes"/>
      <point x="57" y="321" type="curve" smooth="yes"/>
      <point x="57" y="529" smooth="yes"/>
      <point x="295" y="670" smooth="yes"/>
      <point x="570" y="670" type="curve" smooth="yes"/>
      <point x="783" y="670" smooth="yes"/>
      <point x="909" y="607" smooth="yes"/>
      <point x="909" y="607" type="curve" smooth="yes"/>
    </contour>
    <contour>
      <point x="393" y="277" type="line" smooth="yes"/>
      <point x="393" y="151" smooth="yes"/>
      <point x="400" y="17" smooth="yes"/>
      <point x="548" y="17" type="curve" smooth="yes"/>
      <point x="709" y="17" smooth="yes"/>
      <point x="710" y="151" smooth="yes"/>
      <point x="710" y="206" type="curve" smooth="yes"/>
      <point x="710" y="286" smooth="yes"/>
      <point x="674" y="373" smooth="yes"/>
      <point x="584" y="373" type="curve" smooth="yes"/>
      <point x="494" y="373" smooth="yes"/>
      <point x="393" y="318" smooth="yes"/>
      <point x="393" y="318" type="curve" smooth="yes"/>
    </contour>
    <contour>
      <point x="319" y="591" type="line"/>
      <point x="319" y="591" smooth="yes"/>
      <point x="112" y="519" smooth="yes"/>
      <point x="112" y="322" type="curve" smooth="yes"/>
      <point x="112" y="125" smooth="yes"/>
      <point x="299" y="53" smooth="yes"/>
      <point x="299" y="53" type="curve" smooth="yes"/>
      <point x="302" y="58" type="line" smooth="yes"/>
      <point x="302" y="58" smooth="yes"/>
      <point x="168" y="153" smooth="yes"/>
      <point x="168" y="322" type="curve" smooth="yes"/>
      <point x="168" y="491" smooth="yes"/>
      <point x="322" y="585" smooth="yes"/>
      <point x="322" y="585" type="curve" smooth="yes"/>
    </contour>
    <contour>
      <point x="709" y="384" type="line"/>
      <point x="709" y="384" smooth="yes"/>
      <point x="763" y="337" smooth="yes"/>
      <point x="763" y="211" type="curve" smooth="yes"/>
      <point x="763" y="85" smooth="yes"/>
      <point x="710" y="32" smooth="yes"/>
      <point x="710" y="32" type="curve" smooth="yes"/>
      <point x="713" y="28" type="line" smooth="yes" name="hr01"/>
      <point x="713" y="28" smooth="yes"/>
      <point x="811" y="67" smooth="yes"/>
      <point x="811" y="211" type="curve" smooth="yes"/>
      <point x="811" y="355" smooth="yes"/>
      <point x="711" y="388" smooth="yes"/>
      <point x="711" y="388" type="curve" smooth="yes"/>
    </contour>
  </outline>
</glyph>
<glyph name="seven" format="1">
  <advance width="1106"/>
  <unicode hex="0037"/>
  <outline>
    <contour>
      <point x="48" y="650" type="line" name="hr00"/>
      <point x="48" y="400" type="line"/>
      <point x="76" y="400" type="line"/>
      <point x="252" y="597" smooth="yes"/>
      <point x="475" y="622" smooth="yes"/>
      <point x="575" y="622" type="curve" smooth="yes"/>
      <point x="608" y="622"/>
      <point x="627" y="619"/>
      <point x="627" y="619" type="curve"/>
      <point x="627" y="619"/>
      <point x="514" y="513"/>
      <point x="426" y="355" type="curve"/>
      <point x="242" y="355" type="line"/>
      <point x="242" y="311" type="line"/>
      <point x="403" y="311" type="line"/>
      <point x="357" y="219"/>
      <point x="322" y="112"/>
      <point x="322" y="0" type="curve"/>
      <point x="805" y="0" type="line"/>
      <point x="805" y="43" type="line"/>
      <point x="657" y="43" type="line"/>
      <point x="654" y="69" smooth="yes"/>
      <point x="652" y="92" smooth="yes"/>
      <point x="652" y="116" type="curve" smooth="yes"/>
      <point x="652" y="190"/>
      <point x="667" y="255"/>
      <point x="690" y="311" type="curve"/>
      <point x="859" y="311" type="line"/>
      <point x="859" y="355" type="line"/>
      <point x="710" y="355" type="line"/>
      <point x="799" y="524"/>
      <point x="957" y="605"/>
      <point x="957" y="605" type="curve"/>
      <point x="1049" y="605" type="line"/>
      <point x="1049" y="650" type="line"/>
    </contour>
    <contour>
      <point x="139" y="521" type="line"/>
      <point x="98" y="490" type="line"/>
      <point x="98" y="605" type="line"/>
      <point x="139" y="605" type="line"/>
    </contour>
    <contour>
      <point x="440" y="43" type="curve"/>
      <point x="386" y="43" type="line"/>
      <point x="386" y="355"/>
      <point x="691" y="620"/>
      <point x="691" y="620" type="curve"/>
      <point x="745" y="620" type="line"/>
      <point x="745" y="620"/>
      <point x="440" y="354"/>
    </contour>
  </outline>
</glyph>
<glyph name="question" format="1">
  <advance width="1092"/>
  <unicode hex="003F"/>
  <outline>
    <contour>
      <point x="724" y="113" type="curve" smooth="yes"/>
      <point x="724" y="190" smooth="yes"/>
      <point x="622" y="252" smooth="yes"/>
      <point x="496" y="252" type="curve" smooth="yes"/>
      <point x="369" y="252" smooth="yes"/>
      <point x="266" y="190" smooth="yes"/>
      <point x="266" y="113" type="curve" smooth="yes"/>
      <point x="266" y="36" smooth="yes"/>
      <point x="369" y="-26" smooth="yes"/>
      <point x="496" y="-26" type="curve" smooth="yes"/>
      <point x="622" y="-26" smooth="yes"/>
      <point x="724" y="36" smooth="yes"/>
    </contour>
    <contour>
      <point x="982" y="609" type="curve" smooth="yes" name="hr01"/>
      <point x="982" y="750" smooth="yes"/>
      <point x="743" y="783" smooth="yes"/>
      <point x="502" y="783" type="curve" smooth="yes"/>
      <point x="328" y="783"/>
      <point x="227" y="760"/>
      <point x="139" y="735" type="curve"/>
      <point x="139" y="800" type="line"/>
      <point x="97" y="800" type="line"/>
      <point x="97" y="536" type="line"/>
      <point x="139" y="536" type="line"/>
      <point x="168" y="628" smooth="yes"/>
      <point x="371" y="745" smooth="yes"/>
      <point x="506" y="745" type="curve" smooth="yes"/>
      <point x="544" y="745" smooth="yes"/>
      <point x="590" y="733" smooth="yes"/>
      <point x="590" y="553" type="curve" smooth="yes"/>
      <point x="590" y="398" smooth="yes"/>
      <point x="522" y="362" smooth="yes"/>
      <point x="436" y="362" type="curve" smooth="yes"/>
      <point x="411" y="362"/>
      <point x="369" y="363"/>
      <point x="338" y="364" type="curve"/>
      <point x="338" y="319" type="line"/>
      <point x="371" y="318" smooth="yes"/>
      <point x="392" y="317" smooth="yes"/>
      <point x="417" y="317" type="curve" smooth="yes"/>
      <point x="713" y="317" smooth="yes"/>
      <point x="982" y="450" smooth="yes"/>
    </contour>
    <contour>
      <point x="389" y="113" type="curve" smooth="yes"/>
      <point x="389" y="76"/>
      <point x="404" y="44"/>
      <point x="426" y="21" type="curve"/>
      <point x="423" y="16" type="line"/>
      <point x="374" y="35" smooth="yes"/>
      <point x="340" y="73" smooth="yes"/>
      <point x="340" y="113" type="curve" smooth="yes"/>
      <point x="340" y="153"/>
      <point x="374" y="190"/>
      <point x="423" y="210" type="curve"/>
      <point x="426" y="205" type="line"/>
      <point x="404" y="182" smooth="yes"/>
      <point x="389" y="150" smooth="yes"/>
    </contour>
    <contour>
      <point x="652" y="573" type="curve" smooth="yes"/>
      <point x="652" y="648"/>
      <point x="632" y="705"/>
      <point x="608" y="743" type="curve"/>
      <point x="614" y="751" type="line"/>
      <point x="645" y="738" smooth="yes"/>
      <point x="716" y="695" smooth="yes"/>
      <point x="716" y="573" type="curve" smooth="yes"/>
      <point x="716" y="437"/>
      <point x="645" y="389"/>
      <point x="614" y="375" type="curve"/>
      <point x="608" y="384" type="line"/>
      <point x="632" y="426" smooth="yes"/>
      <point x="652" y="490" smooth="yes"/>
    </contour>
  </outline>
</glyph>
<glyph name="H" format="1">
  <advance width="1711"/>
  <unicode hex="0048"/>
  <outline>
    <contour>
      <point x="1402" y="497" type="line" name="hr00"/>
      <point x="1402" y="556" smooth="yes"/>
      <point x="1452" y="607" smooth="yes"/>
      <point x="1511" y="607" type="curve" smooth="yes"/>
      <point x="1632" y="607" type="line"/>
      <point x="1632" y="650" type="line"/>
      <point x="877" y="650" type="line"/>
      <point x="877" y="607" type="line"/>
      <point x="987" y="607" smooth="yes"/>
      <point x="1012" y="565" smooth="yes"/>
      <point x="1012" y="508" type="curve" smooth="yes"/>
      <point x="1012" y="371" type="line"/>
      <point x="692" y="371" type="line"/>
      <point x="692" y="508" type="line" smooth="yes"/>
      <point x="692" y="565"/>
      <point x="717" y="607"/>
      <point x="827" y="607" type="curve"/>
      <point x="827" y="650" type="line"/>
      <point x="73" y="650" type="line"/>
      <point x="73" y="607" type="line"/>
      <point x="193" y="607" type="line" smooth="yes"/>
      <point x="253" y="607" smooth="yes"/>
      <point x="301" y="556" smooth="yes"/>
      <point x="301" y="497" type="curve" smooth="yes"/>
      <point x="301" y="151" type="line" smooth="yes"/>
      <point x="301" y="71" smooth="yes"/>
      <point x="253" y="43" smooth="yes"/>
      <point x="193" y="43" type="curve" smooth="yes"/>
      <point x="73" y="43" type="line"/>
      <point x="73" y="0" type="line"/>
      <point x="827" y="0" type="line"/>
      <point x="827" y="43" type="line"/>
      <point x="695" y="43" smooth="yes"/>
      <point x="692" y="81" smooth="yes"/>
      <point x="692" y="136" type="curve" smooth="yes"/>
      <point x="692" y="274" type="line" smooth="yes"/>
      <point x="692" y="295" smooth="yes"/>
      <point x="702" y="318" smooth="yes"/>
      <point x="734" y="318" type="curve" smooth="yes"/>
      <point x="970" y="318" type="line" smooth="yes"/>
      <point x="1003" y="318" smooth="yes"/>
      <point x="1012" y="295" smooth="yes"/>
      <point x="1012" y="274" type="curve" smooth="yes"/>
      <point x="1012" y="139" type="line" smooth="yes"/>
      <point x="1012" y="83"/>
      <point x="1009" y="43"/>
      <point x="877" y="43" type="curve"/>
      <point x="877" y="0" type="line"/>
      <point x="1632" y="0" type="line"/>
      <point x="1632" y="43" type="line"/>
      <point x="1511" y="43" type="line" smooth="yes"/>
      <point x="1452" y="43" smooth="yes"/>
      <point x="1402" y="71" smooth="yes"/>
      <point x="1402" y="151" type="curve" smooth="yes"/>
    </contour>
    <contour>
      <point x="434" y="43" type="line"/>
      <point x="369" y="43" type="line"/>
      <point x="369" y="607" type="line"/>
      <point x="434" y="607" type="line"/>
    </contour>
    <contour>
      <point x="1146" y="43" type="line"/>
      <point x="1081" y="43" type="line"/>
      <point x="1081" y="607" type="line"/>
      <point x="1146" y="607" type="line"/>
    </contour>
  </outline>
</glyph>
<glyph name="T" format="1">
  <advance width="1104"/>
  <unicode hex="0054"/>
  <outline>
    <contour>
      <point x="785" y="606" type="curve" smooth="yes"/>
      <point x="846" y="606"/>
      <point x="1017" y="365"/>
      <point x="1017" y="365" type="curve"/>
      <point x="1055" y="365" type="line"/>
      <point x="1055" y="650" type="line"/>
      <point x="66" y="650" type="line"/>
      <point x="66" y="365" type="line"/>
      <point x="86" y="365" type="line"/>
      <point x="86" y="365" smooth="yes"/>
      <point x="258" y="606" smooth="yes"/>
      <point x="319" y="606" type="curve" smooth="yes"/>
      <point x="346" y="606" smooth="yes"/>
      <point x="356" y="587" smooth="yes"/>
      <point x="356" y="557" type="curve" smooth="yes" name="hr01"/>
      <point x="356" y="152" type="line" smooth="yes"/>
      <point x="356" y="72" smooth="yes"/>
      <point x="308" y="43" smooth="yes"/>
      <point x="248" y="43" type="curve" smooth="yes"/>
      <point x="127" y="43" type="line"/>
      <point x="127" y="0" type="line"/>
      <point x="977" y="0" type="line"/>
      <point x="977" y="43" type="line"/>
      <point x="856" y="43" type="line" smooth="yes"/>
      <point x="796" y="43" smooth="yes"/>
      <point x="747" y="72" smooth="yes"/>
      <point x="747" y="152" type="curve" smooth="yes"/>
      <point x="747" y="557" type="line" smooth="yes"/>
      <point x="747" y="587" smooth="yes"/>
      <point x="758" y="606" smooth="yes"/>
    </contour>
    <contour>
      <point x="489" y="43" type="line"/>
      <point x="424" y="43" type="line"/>
      <point x="424" y="607" type="line"/>
      <point x="489" y="607" type="line"/>
    </contour>
  </outline>
</glyph>
<glyph name="V" format="1">
  <advance width="1259"/>
  <unicode hex="0056"/>
  <outline>
    <contour>
      <point x="1273" y="607" type="line" name="hr00"/>
      <point x="1222" y="607" type="line"/>
      <point x="654" y="-23" type="line"/>
      <point x="618" y="-23" type="line"/>
      <point x="53" y="607" type="line"/>
      <point x="-14" y="607" type="line"/>
      <point x="-14" y="650" type="line"/>
      <point x="690" y="650" type="line"/>
      <point x="690" y="607" type="line"/>
      <point x="662" y="607" type="line" smooth="yes"/>
      <point x="621" y="607" smooth="yes"/>
      <point x="599" y="573" smooth="yes"/>
      <point x="599" y="533" type="curve" smooth="yes"/>
      <point x="599" y="505" smooth="yes"/>
      <point x="611" y="473" smooth="yes"/>
      <point x="634" y="450" type="curve" smooth="yes"/>
      <point x="821" y="260" type="line"/>
      <point x="951" y="402" type="line" smooth="yes"/>
      <point x="972" y="424" smooth="yes"/>
      <point x="981" y="449" smooth="yes"/>
      <point x="981" y="474" type="curve" smooth="yes"/>
      <point x="981" y="541" smooth="yes"/>
      <point x="910" y="607" smooth="yes"/>
      <point x="805" y="607" type="curve" smooth="yes"/>
      <point x="779" y="607"/>
      <point x="755" y="607"/>
      <point x="755" y="607" type="curve"/>
      <point x="755" y="650" type="line"/>
      <point x="1273" y="650" type="line"/>
    </contour>
    <contour>
      <point x="197" y="607" type="line"/>
      <point x="110" y="607" type="line"/>
      <point x="635" y="21" type="line"/>
      <point x="679" y="69" type="line"/>
    </contour>
  </outline>
</glyph>
<glyph name="Y" format="1">
  <advance width="1309"/>
  <unicode hex="0059"/>
  <outline>
    <contour>
      <point x="800" y="650" type="line" name="hr00"/>
      <point x="800" y="607" type="line"/>
      <point x="850" y="607" type="line" smooth="yes"/>
      <point x="914" y="607" smooth="yes"/>
      <point x="949" y="575" smooth="yes"/>
      <point x="949" y="534" type="curve" smooth="yes"/>
      <point x="949" y="499" smooth="yes"/>
      <point x="925" y="457" smooth="yes"/>
      <point x="877" y="418" type="curve" smooth="yes"/>
      <point x="818" y="370" type="line"/>
      <point x="689" y="498" type="line" smooth="yes"/>
      <point x="668" y="518" smooth="yes"/>
      <point x="659" y="542" smooth="yes"/>
      <point x="659" y="561" type="curve" smooth="yes"/>
      <point x="659" y="587" smooth="yes"/>
      <point x="677" y="607" smooth="yes"/>
      <point x="707" y="607" type="curve" smooth="yes"/>
      <point x="735" y="607" type="line"/>
      <point x="735" y="650" type="line"/>
      <point x="-14" y="650" type="line"/>
      <point x="-14" y="607" type="line"/>
      <point x="87" y="607" type="line"/>
      <point x="427" y="270" type="line"/>
      <point x="427" y="151" type="line" smooth="yes"/>
      <point x="427" y="72" smooth="yes"/>
      <point x="379" y="43" smooth="yes"/>
      <point x="319" y="43" type="curve" smooth="yes"/>
      <point x="197" y="43" type="line"/>
      <point x="197" y="0" type="line"/>
      <point x="1048" y="0" type="line"/>
      <point x="1048" y="43" type="line"/>
      <point x="927" y="43" type="line" smooth="yes"/>
      <point x="867" y="43" smooth="yes"/>
      <point x="818" y="72" smooth="yes"/>
      <point x="818" y="151" type="curve" smooth="yes"/>
      <point x="818" y="291" type="line"/>
      <point x="1257" y="607" type="line"/>
      <point x="1323" y="607" type="line"/>
      <point x="1323" y="650" type="line"/>
    </contour>
    <contour>
      <point x="560" y="306" type="line"/>
      <point x="560" y="43" type="line"/>
      <point x="495" y="43" type="line"/>
      <point x="495" y="292" type="line"/>
      <point x="176" y="607" type="line"/>
      <point x="255" y="607" type="line"/>
    </contour>
  </outline>
</glyph>
<glyph name="bracketleft" format="1">
  <advance width="705"/>
  <unicode hex="005B"/>
  <outline>
    <contour>
      <point x="495" y="562" type="line" smooth="yes" name="hr00"/>
      <point x="495" y="621" smooth="yes"/>
      <point x="544" y="670" smooth="yes"/>
      <point x="604" y="670" type="curve" smooth="yes"/>
      <point x="725" y="670" type="line"/>
      <point x="725" y="715" type="line"/>
      <point x="150" y="715" type="line"/>
      <point x="150" y="-95" type="line"/>
      <point x="725" y="-95" type="line"/>
      <point x="725" y="-52" type="line"/>
      <point x="604" y="-52" type="line" smooth="yes"/>
      <point x="544" y="-52" smooth="yes"/>
      <point x="495" y="-24" smooth="yes"/>
      <point x="495" y="56" type="curve" smooth="yes"/>
    </contour>
    <contour>
      <point x="282" y="-52" type="line"/>
      <point x="217" y="-52" type="line"/>
      <point x="217" y="670" type="line"/>
      <point x="282" y="670" type="line"/>
    </contour>
  </outline>
</glyph>
<glyph name="b" format="1">
  <advance width="1166"/>
  <unicode hex="0062"/>
  <outline>
    <contour>
      <point x="493" y="720" type="line" name="hr00"/>
      <point x="0" y="720" type="line"/>
      <point x="0" y="677" type="line"/>
      <point x="66" y="677" type="line" smooth="yes"/>
      <point x="115" y="677" smooth="yes"/>
      <point x="156" y="636" smooth="yes"/>
      <point x="156" y="588" type="curve" smooth="yes"/>
      <point x="156" y="-22" type="line"/>
      <point x="185" y="-22" type="line"/>
      <point x="218" y="69" type="line"/>
      <point x="344" y="21" smooth="yes"/>
      <point x="483" y="-22" smooth="yes"/>
      <point x="669" y="-22" type="curve" smooth="yes"/>
      <point x="976" y="-22" smooth="yes"/>
      <point x="1116" y="134" smooth="yes"/>
      <point x="1116" y="287" type="curve" smooth="yes"/>
      <point x="1116" y="434" smooth="yes"/>
      <point x="985" y="580" smooth="yes"/>
      <point x="747" y="580" type="curve" smooth="yes"/>
      <point x="653" y="580"/>
      <point x="559" y="555"/>
      <point x="493" y="497" type="curve"/>
    </contour>
    <contour>
      <point x="619" y="496" type="curve" smooth="yes"/>
      <point x="719" y="496" smooth="yes"/>
      <point x="746" y="391" smooth="yes"/>
      <point x="746" y="244" type="curve" smooth="yes"/>
      <point x="746" y="97" smooth="yes"/>
      <point x="700" y="21" smooth="yes"/>
      <point x="619" y="21" type="curve" smooth="yes"/>
      <point x="539" y="21" smooth="yes"/>
      <point x="493" y="97" smooth="yes"/>
      <point x="493" y="244" type="curve" smooth="yes"/>
      <point x="493" y="432" type="line"/>
      <point x="510" y="454" smooth="yes"/>
      <point x="560" y="496" smooth="yes"/>
    </contour>
    <contour>
      <point x="269" y="113" type="line"/>
      <point x="218" y="130" type="line"/>
      <point x="218" y="677" type="line"/>
      <point x="269" y="677" type="line"/>
    </contour>
    <contour>
      <point x="721" y="24" type="line"/>
      <point x="778" y="65" smooth="yes"/>
      <point x="809" y="146" smooth="yes"/>
      <point x="809" y="244" type="curve" smooth="yes"/>
      <point x="809" y="349"/>
      <point x="788" y="446"/>
      <point x="722" y="494" type="curve"/>
      <point x="726" y="500" type="line"/>
      <point x="843" y="452" smooth="yes"/>
      <point x="878" y="339" smooth="yes"/>
      <point x="878" y="245" type="curve" smooth="yes"/>
      <point x="878" y="155"/>
      <point x="824" y="62"/>
      <point x="725" y="20" type="curve"/>
    </contour>
  </outline>
</glyph>
<glyph name="c" format="1">
  <advance width="943"/>
  <unicode hex="0063"/>
  <outline>
    <contour>
      <point x="581" y="26" type="curve" smooth="yes" name="hr00"/>
      <point x="474" y="26" smooth="yes"/>
      <point x="439" y="74" smooth="yes"/>
      <point x="439" y="185" type="curve" smooth="yes"/>
      <point x="439" y="415" type="line" smooth="yes"/>
      <point x="439" y="484" smooth="yes"/>
      <point x="463" y="536" smooth="yes"/>
      <point x="544" y="536" type="curve" smooth="yes"/>
      <point x="668" y="536"/>
      <point x="795" y="407"/>
      <point x="833" y="350" type="curve"/>
      <point x="884" y="350" type="line"/>
      <point x="884" y="558" type="line"/>
      <point x="831" y="558" type="line"/>
      <point x="831" y="518" type="line"/>
      <point x="744" y="548" smooth="yes"/>
      <point x="637" y="579" smooth="yes"/>
      <point x="521" y="579" type="curve" smooth="yes"/>
      <point x="305" y="579" smooth="yes"/>
      <point x="50" y="493" smooth="yes"/>
      <point x="50" y="278" type="curve" smooth="yes"/>
      <point x="50" y="66" smooth="yes"/>
      <point x="285" y="-22" smooth="yes"/>
      <point x="556" y="-22" type="curve" smooth="yes"/>
      <point x="636" y="-22" smooth="yes"/>
      <point x="732" y="-5" smooth="yes"/>
      <point x="804" y="23" type="curve" smooth="yes"/>
      <point x="865" y="47" smooth="yes"/>
      <point x="923" y="81" smooth="yes"/>
      <point x="923" y="103" type="curve" smooth="yes"/>
      <point x="923" y="119" smooth="yes"/>
      <point x="908" y="123" smooth="yes"/>
      <point x="900" y="123" type="curve" smooth="yes"/>
      <point x="876" y="123" smooth="yes"/>
      <point x="769" y="26" smooth="yes"/>
    </contour>
    <contour>
      <point x="181" y="278" type="curve" smooth="yes"/>
      <point x="181" y="158"/>
      <point x="278" y="70"/>
      <point x="414" y="30" type="curve"/>
      <point x="412" y="20" type="line"/>
      <point x="237" y="61" smooth="yes"/>
      <point x="113" y="154" smooth="yes"/>
      <point x="113" y="278" type="curve" smooth="yes"/>
      <point x="113" y="402"/>
      <point x="237" y="495"/>
      <point x="413" y="534" type="curve"/>
      <point x="415" y="525" type="line"/>
      <point x="278" y="485" smooth="yes"/>
      <point x="181" y="399" smooth="yes"/>
    </contour>
  </outline>
</glyph>
<glyph name="d" format="1">
  <advance width="1190"/>
  <unicode hex="0064"/>
  <outline>
    <contour>
      <point x="780" y="43" type="line"/>
      <point x="729" y="43" type="line"/>
      <point x="729" y="677" type="line"/>
      <point x="780" y="677" type="line"/>
    </contour>
    <contour>
      <point x="667" y="497" type="line"/>
      <point x="598" y="555" smooth="yes"/>
      <point x="503" y="580" smooth="yes"/>
      <point x="411" y="580" type="curve" smooth="yes"/>
      <point x="176" y="580" smooth="yes"/>
      <point x="50" y="418" smooth="yes"/>
      <point x="50" y="262" type="curve" smooth="yes"/>
      <point x="50" y="117" smooth="yes"/>
      <point x="161" y="-22" smooth="yes"/>
      <point x="394" y="-22" type="curve" smooth="yes"/>
      <point x="492" y="-22"/>
      <point x="602" y="12"/>
      <point x="667" y="68" type="curve"/>
      <point x="667" y="0" type="line" name="hr01"/>
      <point x="1160" y="0" type="line"/>
      <point x="1160" y="43" type="line"/>
      <point x="1094" y="43" type="line" smooth="yes"/>
      <point x="1045" y="43" smooth="yes"/>
      <point x="1005" y="66" smooth="yes"/>
      <point x="1005" y="132" type="curve" smooth="yes"/>
      <point x="1005" y="720" type="line"/>
      <point x="533" y="720" type="line"/>
      <point x="533" y="677" type="line"/>
      <point x="587" y="677" type="line" smooth="yes"/>
      <point x="631" y="677" smooth="yes"/>
      <point x="667" y="636" smooth="yes"/>
      <point x="667" y="588" type="curve" smooth="yes"/>
    </contour>
    <contour>
      <point x="543" y="496" type="curve" smooth="yes"/>
      <point x="601" y="496"/>
      <point x="650" y="454"/>
      <point x="667" y="432" type="curve"/>
      <point x="667" y="131" type="line"/>
      <point x="641" y="91" smooth="yes"/>
      <point x="597" y="54" smooth="yes"/>
      <point x="543" y="54" type="curve" smooth="yes"/>
      <point x="464" y="54" smooth="yes"/>
      <point x="419" y="125" smooth="yes"/>
      <point x="419" y="262" type="curve" smooth="yes"/>
      <point x="419" y="398" smooth="yes"/>
      <point x="446" y="496" smooth="yes"/>
    </contour>
    <contour>
      <point x="407" y="10" type="line"/>
      <point x="208" y="26" smooth="yes"/>
      <point x="113" y="142" smooth="yes"/>
      <point x="113" y="262" type="curve" smooth="yes"/>
      <point x="113" y="387"/>
      <point x="215" y="518"/>
      <point x="405" y="545" type="curve"/>
      <point x="407" y="535" type="line"/>
      <point x="249" y="506" smooth="yes"/>
      <point x="165" y="382" smooth="yes"/>
      <point x="165" y="263" type="curve" smooth="yes"/>
      <point x="165" y="147"/>
      <point x="243" y="36"/>
      <point x="409" y="18" type="curve"/>
    </contour>
  </outline>
</glyph>
<glyph name="e" format="1">
  <advance width="983"/>
  <unicode hex="0065"/>
  <outline>
    <contour>
      <point x="181" y="278" type="curve" smooth="yes" name="hr00"/>
      <point x="181" y="158"/>
      <point x="278" y="70"/>
      <point x="414" y="30" type="curve"/>
      <point x="412" y="20" type="line"/>
      <point x="237" y="61" smooth="yes"/>
      <point x="113" y="154" smooth="yes"/>
      <point x="113" y="278" type="curve" smooth="yes"/>
      <point x="113" y="402"/>
      <point x="237" y="495"/>
      <point x="413" y="534" type="curve"/>
      <point x="415" y="525" type="line"/>
      <point x="278" y="485" smooth="yes"/>
      <point x="181" y="399" smooth="yes"/>
    </contour>
    <contour>
      <point x="538" y="536" type="curve" smooth="yes"/>
      <point x="611" y="536" smooth="yes"/>
      <point x="650" y="470" smooth="yes"/>
      <point x="650" y="402" type="curve" smooth="yes"/>
      <point x="650" y="330" smooth="yes"/>
      <point x="606" y="259" smooth="yes"/>
      <point x="526" y="259" type="curve" smooth="yes"/>
      <point x="326" y="259" type="line"/>
      <point x="326" y="199" type="line"/>
      <point x="526" y="199" type="line" smooth="yes"/>
      <point x="840" y="199" smooth="yes"/>
      <point x="923" y="296" smooth="yes"/>
      <point x="923" y="389" type="curve" smooth="yes"/>
      <point x="923" y="484" smooth="yes"/>
      <point x="838" y="579" smooth="yes"/>
      <point x="517" y="579" type="curve" smooth="yes"/>
      <point x="303" y="579" smooth="yes"/>
      <point x="50" y="493" smooth="yes"/>
      <point x="50" y="278" type="curve" smooth="yes"/>
      <point x="50" y="66" smooth="yes"/>
      <point x="289" y="-22" smooth="yes"/>
      <point x="567" y="-22" type="curve" smooth="yes"/>
      <point x="648" y="-22" smooth="yes"/>
      <point x="746" y="-5" smooth="yes"/>
      <point x="819" y="23" type="curve" smooth="yes"/>
      <point x="882" y="47" smooth="yes"/>
      <point x="943" y="81" smooth="yes"/>
      <point x="943" y="103" type="curve" smooth="yes"/>
      <point x="943" y="119" smooth="yes"/>
      <point x="928" y="123" smooth="yes"/>
      <point x="920" y="123" type="curve" smooth="yes"/>
      <point x="895" y="123" smooth="yes"/>
      <point x="782" y="26" smooth="yes"/>
      <point x="587" y="26" type="curve" smooth="yes"/>
      <point x="465" y="26" smooth="yes"/>
      <point x="421" y="108" smooth="yes"/>
      <point x="421" y="279" type="curve" smooth="yes"/>
      <point x="421" y="449" smooth="yes"/>
      <point x="452" y="536" smooth="yes"/>
    </contour>
    <contour>
      <point x="618" y="545" type="line"/>
      <point x="713" y="519" smooth="yes"/>
      <point x="764" y="462" smooth="yes"/>
      <point x="764" y="402" type="curve" smooth="yes"/>
      <point x="764" y="341"/>
      <point x="715" y="280"/>
      <point x="623" y="252" type="curve"/>
      <point x="620" y="261" type="line"/>
      <point x="681" y="292" smooth="yes"/>
      <point x="713" y="348" smooth="yes"/>
      <point x="713" y="402" type="curve" smooth="yes"/>
      <point x="713" y="457"/>
      <point x="680" y="509"/>
      <point x="616" y="537" type="curve"/>
    </contour>
  </outline>
</glyph>
<glyph name="f" format="1">
  <advance width="777"/>
  <unicode hex="0066"/>
  <outline>
    <contour>
      <point x="205" y="522" type="line" name="hr00"/>
      <point x="313" y="499" smooth="yes"/>
      <point x="329" y="443" smooth="yes"/>
      <point x="329" y="403" type="curve" smooth="yes"/>
      <point x="329" y="43" type="line"/>
      <point x="278" y="43" type="line"/>
      <point x="278" y="403" type="line" smooth="yes"/>
      <point x="278" y="439"/>
      <point x="268" y="489"/>
      <point x="203" y="515" type="curve"/>
    </contour>
    <contour>
      <point x="193" y="558" type="curve"/>
      <point x="193" y="558"/>
      <point x="60" y="558"/>
      <point x="60" y="558" type="curve"/>
      <point x="60" y="515" type="line"/>
      <point x="126" y="515" type="line" smooth="yes"/>
      <point x="175" y="515" smooth="yes"/>
      <point x="216" y="474" smooth="yes"/>
      <point x="216" y="426" type="curve" smooth="yes"/>
      <point x="216" y="132" type="line" smooth="yes"/>
      <point x="216" y="66" smooth="yes"/>
      <point x="175" y="43" smooth="yes"/>
      <point x="126" y="43" type="curve" smooth="yes"/>
      <point x="60" y="43" type="line"/>
      <point x="60" y="0" type="line"/>
      <point x="709" y="0" type="line"/>
      <point x="709" y="43" type="line"/>
      <point x="643" y="43" type="line" smooth="yes"/>
      <point x="594" y="43" smooth="yes"/>
      <point x="553" y="66" smooth="yes"/>
      <point x="553" y="132" type="curve" smooth="yes"/>
      <point x="553" y="426" type="line" smooth="yes"/>
      <point x="553" y="492" smooth="yes"/>
      <point x="594" y="515" smooth="yes"/>
      <point x="643" y="515" type="curve" smooth="yes"/>
      <point x="709" y="515" type="line"/>
      <point x="709" y="558" type="line"/>
      <point x="547" y="558" type="line" smooth="yes"/>
      <point x="447" y="558"/>
      <point x="374" y="587"/>
      <point x="344" y="684" type="curve"/>
      <point x="361" y="693" type="line"/>
      <point x="383" y="650" smooth="yes"/>
      <point x="444" y="595" smooth="yes"/>
      <point x="534" y="595" type="curve" smooth="yes"/>
      <point x="636" y="595" smooth="yes"/>
      <point x="717" y="656" smooth="yes"/>
      <point x="717" y="732" type="curve" smooth="yes"/>
      <point x="717" y="806" smooth="yes"/>
      <point x="638" y="866" smooth="yes"/>
      <point x="539" y="866" type="curve" smooth="yes"/>
      <point x="409" y="866"/>
      <point x="288" y="807"/>
    </contour>
    <contour>
      <point x="432" y="732" type="curve" smooth="yes"/>
      <point x="432" y="695"/>
      <point x="443" y="662"/>
      <point x="464" y="636" type="curve"/>
      <point x="419" y="655" smooth="yes"/>
      <point x="387" y="691" smooth="yes"/>
      <point x="387" y="732" type="curve" smooth="yes"/>
      <point x="387" y="771"/>
      <point x="419" y="807"/>
      <point x="464" y="826" type="curve"/>
      <point x="443" y="802" smooth="yes"/>
      <point x="432" y="769" smooth="yes"/>
    </contour>
  </outline>
</glyph>
<glyph name="i" format="1">
  <advance width="739"/>
  <unicode hex="0069"/>
  <outline>
    <contour>
      <point x="554" y="558" type="line" name="hr00"/>
      <point x="60" y="558" type="line"/>
      <point x="60" y="515" type="line"/>
      <point x="126" y="515" type="line" smooth="yes"/>
      <point x="175" y="515" smooth="yes"/>
      <point x="216" y="474" smooth="yes"/>
      <point x="216" y="426" type="curve" smooth="yes"/>
      <point x="216" y="132" type="line" smooth="yes"/>
      <point x="216" y="66" smooth="yes"/>
      <point x="175" y="43" smooth="yes"/>
      <point x="126" y="43" type="curve" smooth="yes"/>
      <point x="60" y="43" type="line"/>
      <point x="60" y="0" type="line"/>
      <point x="709" y="0" type="line"/>
      <point x="709" y="43" type="line"/>
      <point x="643" y="43" type="line" smooth="yes"/>
      <point x="594" y="43" smooth="yes"/>
      <point x="553" y="66" smooth="yes"/>
      <point x="553" y="132" type="curve" smooth="yes"/>
    </contour>
    <contour>
      <point x="329" y="43" type="line"/>
      <point x="278" y="43" type="line"/>
      <point x="278" y="515" type="line"/>
      <point x="329" y="515" type="line"/>
    </contour>
    <contour>
      <point x="584" y="740" type="curve" smooth="yes"/>
      <point x="584" y="671" smooth="yes"/>
      <point x="492" y="615" smooth="yes"/>
      <point x="379" y="615" type="curve" smooth="yes"/>
      <point x="266" y="615" smooth="yes"/>
      <point x="174" y="671" smooth="yes"/>
      <point x="174" y="740" type="curve" smooth="yes"/>
      <point x="174" y="809" smooth="yes"/>
      <point x="266" y="866" smooth="yes"/>
      <point x="379" y="866" type="curve" smooth="yes"/>
      <point x="492" y="866" smooth="yes"/>
      <point x="584" y="809" smooth="yes"/>
    </contour>
    <contour>
      <point x="263" y="740" type="curve" smooth="yes"/>
      <point x="263" y="775"/>
      <point x="277" y="805"/>
      <point x="299" y="827" type="curve"/>
      <point x="249" y="810" smooth="yes"/>
      <point x="214" y="777" smooth="yes"/>
      <point x="214" y="740" type="curve" smooth="yes"/>
      <point x="214" y="703"/>
      <point x="249" y="670"/>
      <point x="299" y="653" type="curve"/>
      <point x="277" y="676" smooth="yes"/>
      <point x="263" y="706" smooth="yes"/>
    </contour>
  </outline>
</glyph>
<glyph name="k" format="1">
  <advance width="1281"/>
  <unicode hex="006B"/>
  <outline>
    <contour>
      <point x="542" y="720" type="line" name="hr00"/>
      <point x="50" y="720" type="line"/>
      <point x="50" y="677" type="line"/>
      <point x="115" y="677" type="line" smooth="yes"/>
      <point x="164" y="677" smooth="yes"/>
      <point x="204" y="635" smooth="yes"/>
      <point x="204" y="587" type="curve" smooth="yes"/>
      <point x="204" y="132" type="line" smooth="yes"/>
      <point x="204" y="67" smooth="yes"/>
      <point x="164" y="43" smooth="yes"/>
      <point x="115" y="43" type="curve" smooth="yes"/>
      <point x="50" y="43" type="line"/>
      <point x="50" y="0" type="line"/>
      <point x="656" y="0" type="line"/>
      <point x="656" y="43" type="line"/>
      <point x="632" y="43" type="line" smooth="yes"/>
      <point x="582" y="43" smooth="yes"/>
      <point x="542" y="67" smooth="yes"/>
      <point x="542" y="132" type="curve" smooth="yes"/>
      <point x="542" y="217" type="line" smooth="yes"/>
      <point x="542" y="234" smooth="yes"/>
      <point x="548" y="252" smooth="yes"/>
      <point x="575" y="252" type="curve" smooth="yes"/>
      <point x="601" y="252" type="line"/>
      <point x="826" y="0" type="line"/>
      <point x="1261" y="0" type="line"/>
      <point x="1261" y="43" type="line"/>
      <point x="1186" y="43" type="line"/>
      <point x="1186" y="43" smooth="yes"/>
      <point x="958" y="311" smooth="yes"/>
      <point x="933" y="342" type="curve" smooth="yes"/>
      <point x="925" y="352" smooth="yes"/>
      <point x="921" y="363" smooth="yes"/>
      <point x="921" y="371" type="curve" smooth="yes"/>
      <point x="921" y="385" smooth="yes"/>
      <point x="934" y="399" smooth="yes"/>
      <point x="945" y="406" type="curve" smooth="yes"/>
      <point x="971" y="421" smooth="yes"/>
      <point x="1140" y="515" smooth="yes"/>
      <point x="1208" y="515" type="curve" smooth="yes"/>
      <point x="1261" y="515" type="line"/>
      <point x="1261" y="558" type="line"/>
      <point x="793" y="558" type="line"/>
      <point x="793" y="515" type="line"/>
      <point x="880" y="515" smooth="yes"/>
      <point x="911" y="509" smooth="yes"/>
      <point x="911" y="480" type="curve" smooth="yes"/>
      <point x="911" y="452" smooth="yes"/>
      <point x="833" y="410" smooth="yes"/>
      <point x="755" y="369" type="curve" smooth="yes"/>
      <point x="690" y="335" smooth="yes"/>
      <point x="625" y="299" smooth="yes"/>
      <point x="606" y="299" type="curve" smooth="yes"/>
      <point x="588" y="299" type="line" smooth="yes"/>
      <point x="548" y="299" smooth="yes"/>
      <point x="542" y="323" smooth="yes"/>
      <point x="542" y="346" type="curve" smooth="yes"/>
    </contour>
    <contour>
      <point x="317" y="43" type="line"/>
      <point x="267" y="43" type="line"/>
      <point x="267" y="677" type="line"/>
      <point x="317" y="677" type="line"/>
    </contour>
    <contour>
      <point x="923" y="43" type="line"/>
      <point x="855" y="43" type="line"/>
      <point x="659" y="275" type="line"/>
      <point x="728" y="275" type="line"/>
    </contour>
  </outline>
</glyph>
<glyph name="n" format="1">
  <advance width="1324"/>
  <unicode hex="006E"/>
  <outline>
    <contour>
      <point x="329" y="43" type="line"/>
      <point x="278" y="43" type="line"/>
      <point x="278" y="515" type="line"/>
      <point x="329" y="515" type="line"/>
    </contour>
    <contour>
      <point x="553" y="558" type="line"/>
      <point x="60" y="558" type="line"/>
      <point x="60" y="515" type="line"/>
      <point x="126" y="515" type="line" smooth="yes"/>
      <point x="175" y="515" smooth="yes"/>
      <point x="216" y="474" smooth="yes"/>
      <point x="216" y="426" type="curve" smooth="yes"/>
      <point x="216" y="132" type="line" smooth="yes"/>
      <point x="216" y="75" smooth="yes"/>
      <point x="184" y="43" smooth="yes"/>
      <point x="126" y="43" type="curve" smooth="yes"/>
      <point x="60" y="43" type="line"/>
      <point x="60" y="0" type="line"/>
      <point x="709" y="0" type="line"/>
      <point x="709" y="43" type="line"/>
      <point x="643" y="43" type="line" smooth="yes"/>
      <point x="585" y="43" smooth="yes"/>
      <point x="553" y="75" smooth="yes"/>
      <point x="553" y="132" type="curve" smooth="yes"/>
      <point x="553" y="367" type="line"/>
      <point x="605" y="418" smooth="yes"/>
      <point x="682" y="456" smooth="yes"/>
      <point x="735" y="456" type="curve" smooth="yes" name="hr01"/>
      <point x="783" y="456" smooth="yes"/>
      <point x="801" y="432" smooth="yes"/>
      <point x="801" y="364" type="curve" smooth="yes"/>
      <point x="801" y="0" type="line"/>
      <point x="1294" y="0" type="line"/>
      <point x="1294" y="43" type="line"/>
      <point x="1228" y="43" type="line" smooth="yes"/>
      <point x="1170" y="43" smooth="yes"/>
      <point x="1138" y="75" smooth="yes"/>
      <point x="1138" y="132" type="curve" smooth="yes"/>
      <point x="1138" y="423" type="line" smooth="yes"/>
      <point x="1138" y="533" smooth="yes"/>
      <point x="1067" y="580" smooth="yes"/>
      <point x="900" y="580" type="curve" smooth="yes" name="hr02"/>
      <point x="781" y="580"/>
      <point x="661" y="528"/>
      <point x="553" y="430" type="curve"/>
    </contour>
    <contour>
      <point x="790" y="486" type="line"/>
      <point x="868" y="468" smooth="yes"/>
      <point x="914" y="421" smooth="yes"/>
      <point x="914" y="357" type="curve" smooth="yes"/>
      <point x="914" y="43" type="line"/>
      <point x="863" y="43" type="line"/>
      <point x="863" y="357" type="line" smooth="yes"/>
      <point x="863" y="414"/>
      <point x="835" y="459"/>
      <point x="788" y="479" type="curve"/>
    </contour>
  </outline>
</glyph>
<glyph name="o" format="1">
  <advance width="1099"/>
  <unicode hex="006F"/>
  <outline>
    <contour>
      <point x="171" y="280" type="curve" smooth="yes" name="hr00"/>
      <point x="171" y="167"/>
      <point x="258" y="75"/>
      <point x="404" y="32" type="curve"/>
      <point x="402" y="22" type="line"/>
      <point x="216" y="66" smooth="yes"/>
      <point x="103" y="163" smooth="yes"/>
      <point x="103" y="280" type="curve" smooth="yes"/>
      <point x="103" y="397"/>
      <point x="217" y="494"/>
      <point x="403" y="536" type="curve"/>
      <point x="405" y="527" type="line"/>
      <point x="257" y="483" smooth="yes"/>
      <point x="171" y="393" smooth="yes"/>
    </contour>
    <contour>
      <point x="1059" y="280" type="curve" smooth="yes"/>
      <point x="1059" y="455" smooth="yes"/>
      <point x="847" y="580" smooth="yes"/>
      <point x="550" y="580" type="curve" smooth="yes"/>
      <point x="253" y="580" smooth="yes"/>
      <point x="40" y="455" smooth="yes"/>
      <point x="40" y="280" type="curve" smooth="yes"/>
      <point x="40" y="113" smooth="yes"/>
      <point x="268" y="-22" smooth="yes"/>
      <point x="550" y="-22" type="curve" smooth="yes"/>
      <point x="832" y="-22" smooth="yes"/>
      <point x="1059" y="113" smooth="yes"/>
    </contour>
    <contour>
      <point x="709" y="523" type="line"/>
      <point x="781" y="461" smooth="yes"/>
      <point x="821" y="374" smooth="yes"/>
      <point x="821" y="280" type="curve" smooth="yes"/>
      <point x="821" y="185"/>
      <point x="780" y="96"/>
      <point x="708" y="35" type="curve"/>
      <point x="704" y="38" type="line"/>
      <point x="736" y="118" smooth="yes"/>
      <point x="752" y="198" smooth="yes"/>
      <point x="752" y="280" type="curve" smooth="yes"/>
      <point x="752" y="361"/>
      <point x="736" y="441"/>
      <point x="705" y="520" type="curve"/>
    </contour>
    <contour>
      <point x="689" y="279" type="curve"/>
      <point x="689" y="93" smooth="yes"/>
      <point x="650" y="22" smooth="yes"/>
      <point x="550" y="22" type="curve" smooth="yes"/>
      <point x="450" y="22" smooth="yes"/>
      <point x="411" y="93" smooth="yes"/>
      <point x="411" y="279" type="curve" smooth="yes"/>
      <point x="411" y="465" smooth="yes"/>
      <point x="450" y="536" smooth="yes"/>
      <point x="550" y="536" type="curve" smooth="yes"/>
      <point x="650" y="536" smooth="yes"/>
      <point x="689" y="465" smooth="yes"/>
    </contour>
  </outline>
</glyph>
<glyph name="r" format="1">
  <advance width="1001"/>
  <unicode hex="0072"/>
  <outline>
    <contour>
      <point x="832" y="580" type="curve" smooth="yes"/>
      <point x="730" y="580"/>
      <point x="629" y="519"/>
      <point x="553" y="384" type="curve"/>
      <point x="553" y="558" type="line"/>
      <point x="60" y="558" type="line"/>
      <point x="60" y="515" type="line"/>
      <point x="126" y="515" type="line" smooth="yes"/>
      <point x="175" y="515" smooth="yes"/>
      <point x="216" y="474" smooth="yes"/>
      <point x="216" y="426" type="curve" smooth="yes"/>
      <point x="216" y="132" type="line" smooth="yes"/>
      <point x="216" y="66" smooth="yes"/>
      <point x="175" y="43" smooth="yes"/>
      <point x="126" y="43" type="curve" smooth="yes"/>
      <point x="60" y="43" type="line"/>
      <point x="60" y="0" type="line"/>
      <point x="749" y="0" type="line"/>
      <point x="749" y="43" type="line"/>
      <point x="643" y="43" type="line" smooth="yes"/>
      <point x="594" y="43" smooth="yes"/>
      <point x="553" y="66" smooth="yes"/>
      <point x="553" y="132" type="curve" smooth="yes"/>
      <point x="553" y="286" type="line"/>
      <point x="578" y="334"/>
      <point x="623" y="392"/>
      <point x="666" y="424" type="curve"/>
      <point x="689" y="342" smooth="yes"/>
      <point x="766" y="302" smooth="yes"/>
      <point x="840" y="302" type="curve" smooth="yes"/>
      <point x="922" y="302" smooth="yes"/>
      <point x="1001" y="350" smooth="yes"/>
      <point x="1001" y="441" type="curve" smooth="yes"/>
      <point x="1001" y="518" smooth="yes"/>
      <point x="926" y="580" smooth="yes"/>
    </contour>
    <contour>
      <point x="329" y="43" type="line"/>
      <point x="278" y="43" type="line"/>
      <point x="278" y="515" type="line"/>
      <point x="329" y="515" type="line"/>
    </contour>
    <contour>
      <point x="746" y="444" type="curve" smooth="yes"/>
      <point x="746" y="406"/>
      <point x="758" y="372"/>
      <point x="779" y="345" type="curve"/>
      <point x="733" y="365" smooth="yes"/>
      <point x="700" y="402" smooth="yes"/>
      <point x="700" y="444" type="curve" smooth="yes" name="hr01"/>
      <point x="700" y="485"/>
      <point x="733" y="522"/>
      <point x="779" y="542" type="curve"/>
      <point x="758" y="517" smooth="yes"/>
      <point x="746" y="483" smooth="yes"/>
    </contour>
  </outline>
</glyph>
<glyph name="v" format="1">
  <advance width="1059"/>
  <unicode hex="0076"/>
  <outline>
    <contour>
      <point x="1049" y="558" type="line" name="hr00"/>
      <point x="594" y="558" type="line"/>
      <point x="594" y="515" type="line"/>
      <point x="659" y="515" type="line" smooth="yes"/>
      <point x="747" y="515" smooth="yes"/>
      <point x="798" y="475" smooth="yes"/>
      <point x="798" y="424" type="curve" smooth="yes"/>
      <point x="798" y="399" smooth="yes"/>
      <point x="787" y="372" smooth="yes"/>
      <point x="762" y="346" type="curve" smooth="yes"/>
      <point x="652" y="229" type="line"/>
      <point x="496" y="387" type="line" smooth="yes"/>
      <point x="464" y="419" smooth="yes"/>
      <point x="451" y="448" smooth="yes"/>
      <point x="451" y="470" type="curve" smooth="yes"/>
      <point x="451" y="498" smooth="yes"/>
      <point x="470" y="515" smooth="yes"/>
      <point x="495" y="515" type="curve" smooth="yes"/>
      <point x="544" y="515" type="line"/>
      <point x="544" y="558" type="line"/>
      <point x="-30" y="558" type="line"/>
      <point x="-30" y="515" type="line"/>
      <point x="39" y="515" type="line"/>
      <point x="480" y="-19" type="line"/>
      <point x="512" y="-19" type="line"/>
      <point x="994" y="515" type="line"/>
      <point x="1049" y="515" type="line"/>
    </contour>
    <contour>
      <point x="499" y="31" type="line"/>
      <point x="100" y="515" type="line"/>
      <point x="157" y="515" type="line"/>
      <point x="529" y="63" type="line"/>
    </contour>
  </outline>
</glyph>
<glyph name="w" format="1">
  <advance width="1663"/>
  <unicode hex="0077"/>
  <outline>
    <contour>
      <point x="776" y="360" type="line" name="hr00"/>
      <point x="652" y="229" type="line"/>
      <point x="496" y="387" type="line" smooth="yes"/>
      <point x="464" y="419" smooth="yes"/>
      <point x="451" y="448" smooth="yes"/>
      <point x="451" y="470" type="curve" smooth="yes"/>
      <point x="451" y="498" smooth="yes"/>
      <point x="470" y="515" smooth="yes"/>
      <point x="495" y="515" type="curve" smooth="yes"/>
      <point x="544" y="515" type="line"/>
      <point x="544" y="558" type="line"/>
      <point x="-30" y="558" type="line"/>
      <point x="-30" y="515" type="line"/>
      <point x="39" y="515" type="line"/>
      <point x="480" y="-19" type="line"/>
      <point x="512" y="-19" type="line"/>
      <point x="822" y="323" type="line"/>
    </contour>
    <contour>
      <point x="499" y="31" type="line"/>
      <point x="100" y="515" type="line"/>
      <point x="157" y="515" type="line"/>
      <point x="529" y="63" type="line"/>
    </contour>
    <contour>
      <point x="1653" y="558" type="line"/>
      <point x="1198" y="558" type="line"/>
      <point x="1198" y="515" type="line"/>
      <point x="1263" y="515" type="line" smooth="yes"/>
      <point x="1351" y="515" smooth="yes"/>
      <point x="1402" y="475" smooth="yes"/>
      <point x="1402" y="424" type="curve" smooth="yes"/>
      <point x="1402" y="399" smooth="yes"/>
      <point x="1391" y="372" smooth="yes"/>
      <point x="1366" y="346" type="curve" smooth="yes"/>
      <point x="1256" y="229" type="line"/>
      <point x="1100" y="387" type="line" smooth="yes"/>
      <point x="1068" y="419" smooth="yes"/>
      <point x="1055" y="448" smooth="yes"/>
      <point x="1055" y="470" type="curve" smooth="yes"/>
      <point x="1055" y="498" smooth="yes"/>
      <point x="1074" y="515" smooth="yes"/>
      <point x="1099" y="515" type="curve" smooth="yes"/>
      <point x="1148" y="515" type="line"/>
      <point x="1148" y="558" type="line"/>
      <point x="594" y="558" type="line"/>
      <point x="594" y="515" type="line"/>
      <point x="643" y="515" type="line"/>
      <point x="1084" y="-19" type="line"/>
      <point x="1116" y="-19" type="line"/>
      <point x="1598" y="515" type="line"/>
      <point x="1653" y="515" type="line"/>
    </contour>
    <contour>
      <point x="1103" y="31" type="line"/>
      <point x="704" y="515" type="line"/>
      <point x="761" y="515" type="line"/>
      <point x="1133" y="63" type="line"/>
    </contour>
  </outline>
</glyph>
<glyph name="x" format="1">
  <advance width="1067"/>
  <unicode hex="0078"/>
  <outline>
    <contour>
      <point x="605" y="0" type="line"/>
      <point x="1067" y="0" type="line"/>
      <point x="1067" y="43" type="line"/>
      <point x="1007" y="43" type="line" smooth="yes"/>
      <point x="957" y="43" smooth="yes"/>
      <point x="883" y="58" smooth="yes"/>
      <point x="827" y="133" type="curve" smooth="yes"/>
      <point x="509" y="558" type="line"/>
      <point x="40" y="558" type="line"/>
      <point x="40" y="515" type="line"/>
      <point x="105" y="515" type="line" smooth="yes"/>
      <point x="170" y="515" smooth="yes"/>
      <point x="234" y="491" smooth="yes"/>
      <point x="286" y="423" type="curve" smooth="yes"/>
    </contour>
    <contour>
      <point x="297" y="515" type="line"/>
      <point x="360" y="515" type="line"/>
      <point x="717" y="43" type="line"/>
      <point x="654" y="43" type="line"/>
    </contour>
    <contour>
      <point x="472" y="256" type="line"/>
      <point x="243" y="108" type="line" smooth="yes"/>
      <point x="212" y="88" smooth="yes"/>
      <point x="131" y="43" smooth="yes"/>
      <point x="61" y="43" type="curve" smooth="yes"/>
      <point x="30" y="43" type="line"/>
      <point x="30" y="0" type="line"/>
      <point x="474" y="0" type="line"/>
      <point x="474" y="43" type="line"/>
      <point x="431" y="43" type="line" smooth="yes"/>
      <point x="412" y="43" smooth="yes"/>
      <point x="381" y="59" smooth="yes"/>
      <point x="381" y="89" type="curve" smooth="yes"/>
      <point x="381" y="111" smooth="yes"/>
      <point x="403" y="143" smooth="yes"/>
      <point x="454" y="177" type="curve" smooth="yes"/>
      <point x="512" y="215" type="line"/>
    </contour>
    <contour>
      <point x="651" y="321" type="line"/>
      <point x="844" y="446" type="line" smooth="yes"/>
      <point x="878" y="468" smooth="yes"/>
      <point x="960" y="514" smooth="yes"/>
      <point x="1025" y="515" type="curve" smooth="yes"/>
      <point x="1057" y="515" type="line"/>
      <point x="1057" y="557" type="line" name="hr01"/>
      <point x="637" y="557" type="line"/>
      <point x="637" y="515" type="line" name="hr02"/>
      <point x="656" y="515" type="line" smooth="yes"/>
      <point x="675" y="515" smooth="yes"/>
      <point x="705" y="497" smooth="yes"/>
      <point x="705" y="467" type="curve" smooth="yes"/>
      <point x="705" y="445" smooth="yes"/>
      <point x="685" y="417" smooth="yes"/>
      <point x="632" y="379" type="curve" smooth="yes"/>
      <point x="610" y="363" type="line"/>
    </contour>
  </outline>
</glyph>
<glyph name="braceleft" format="1">
  <advance width="805"/>
  <unicode hex="007B"/>
  <outline>
    <contour>
      <point x="43" y="281" type="line" name="hr00"/>
      <point x="113" y="281" smooth="yes"/>
      <point x="144" y="267" smooth="yes"/>
      <point x="144" y="192" type="curve" smooth="yes"/>
      <point x="144" y="103"/>
      <point x="226" y="-117"/>
      <point x="684" y="-117" type="curve"/>
      <point x="684" y="-63" type="line"/>
      <point x="684" y="-63" smooth="yes"/>
      <point x="498" y="-54" smooth="yes"/>
      <point x="498" y="139" type="curve" smooth="yes"/>
      <point x="498" y="291"/>
      <point x="441" y="302"/>
      <point x="357" y="302" type="curve"/>
      <point x="357" y="318" type="line"/>
      <point x="441" y="318" smooth="yes"/>
      <point x="498" y="329" smooth="yes"/>
      <point x="498" y="481" type="curve" smooth="yes"/>
      <point x="498" y="674"/>
      <point x="684" y="683"/>
      <point x="684" y="683" type="curve"/>
      <point x="684" y="737" type="line"/>
      <point x="226" y="737" smooth="yes"/>
      <point x="144" y="517" smooth="yes"/>
      <point x="144" y="428" type="curve" smooth="yes"/>
      <point x="144" y="353"/>
      <point x="113" y="339"/>
      <point x="43" y="339" type="curve"/>
    </contour>
    <contour>
      <point x="163" y="314" type="line"/>
      <point x="189" y="324" smooth="yes"/>
      <point x="209" y="349" smooth="yes"/>
      <point x="209" y="404" type="curve" smooth="yes"/>
      <point x="209" y="544"/>
      <point x="280" y="634"/>
      <point x="481" y="682" type="curve"/>
      <point x="483" y="675" type="line"/>
      <point x="314" y="611" smooth="yes"/>
      <point x="282" y="563" smooth="yes"/>
      <point x="282" y="404" type="curve" smooth="yes"/>
      <point x="282" y="344"/>
      <point x="244" y="317"/>
      <point x="189" y="310" type="curve"/>
      <point x="244" y="303" smooth="yes"/>
      <point x="282" y="275" smooth="yes"/>
      <point x="282" y="216" type="curve" smooth="yes"/>
      <point x="282" y="57"/>
      <point x="314" y="9"/>
      <point x="483" y="-55" type="curve"/>
      <point x="481" y="-62" type="line"/>
      <point x="280" y="-14" smooth="yes"/>
      <point x="209" y="76" smooth="yes"/>
      <point x="209" y="216" type="curve" smooth="yes"/>
      <point x="209" y="271"/>
      <point x="189" y="296"/>
      <point x="163" y="306" type="curve"/>
    </contour>
  </outline>
</glyph>
<glyph name="currency" format="1">
  <advance width="790"/>
  <unicode hex="00A4"/>
  <outline>
    <contour>
      <point x="757" y="335" type="curve" smooth="yes"/>
      <point x="757" y="447" smooth="yes"/>
      <point x="616" y="540" smooth="yes"/>
      <point x="395" y="540" type="curve" smooth="yes"/>
      <point x="175" y="540" smooth="yes"/>
      <point x="33" y="447" smooth="yes"/>
      <point x="33" y="335" type="curve" smooth="yes"/>
      <point x="33" y="220" smooth="yes"/>
      <point x="196" y="128" smooth="yes"/>
      <point x="395" y="128" type="curve" smooth="yes"/>
      <point x="595" y="128" smooth="yes"/>
      <point x="757" y="220" smooth="yes"/>
    </contour>
    <contour>
      <point x="395" y="492" type="curve" smooth="yes"/>
      <point x="480" y="492" smooth="yes"/>
      <point x="502" y="438" smooth="yes"/>
      <point x="502" y="334" type="curve" smooth="yes"/>
      <point x="502" y="228" smooth="yes"/>
      <point x="462" y="175" smooth="yes"/>
      <point x="395" y="175" type="curve" smooth="yes"/>
      <point x="328" y="175" smooth="yes"/>
      <point x="289" y="228" smooth="yes"/>
      <point x="289" y="334" type="curve" smooth="yes"/>
      <point x="289" y="438" smooth="yes"/>
      <point x="312" y="492" smooth="yes"/>
    </contour>
    <contour>
      <point x="282" y="492" type="line"/>
      <point x="185" y="465" smooth="yes"/>
      <point x="127" y="402" smooth="yes"/>
      <point x="127" y="335" type="curve" smooth="yes" name="hr01"/>
      <point x="127" y="268"/>
      <point x="190" y="206"/>
      <point x="282" y="178" type="curve"/>
      <point x="282" y="172" type="line"/>
      <point x="166" y="197" smooth="yes"/>
      <point x="82" y="261" smooth="yes"/>
      <point x="82" y="335" type="curve" smooth="yes"/>
      <point x="82" y="409"/>
      <point x="157" y="472"/>
      <point x="282" y="496" type="curve"/>
    </contour>
    <contour>
      <point x="603" y="335" type="curve" smooth="yes"/>
      <point x="603" y="267"/>
      <point x="571" y="224"/>
      <point x="535" y="185" type="curve"/>
      <point x="549" y="230" smooth="yes"/>
      <point x="559" y="282" smooth="yes"/>
      <point x="559" y="335" type="curve" smooth="yes"/>
      <point x="559" y="389"/>
      <point x="549" y="439"/>
      <point x="530" y="489" type="curve"/>
      <point x="571" y="448" smooth="yes"/>
      <point x="603" y="403" smooth="yes"/>
    </contour>
    <contour>
      <point x="247" y="166" type="line"/>
      <point x="132" y="0" type="line"/>
      <point x="173" y="-29" type="line"/>
      <point x="308" y="166" type="line"/>
    </contour>
    <contour>
      <point x="542" y="500" type="line"/>
      <point x="658" y="668" type="line"/>
      <point x="617" y="697" type="line"/>
      <point x="487" y="510" type="line"/>
    </contour>
    <contour>
      <point x="482" y="166" type="line"/>
      <point x="617" y="-29" type="line"/>
      <point x="658" y="0" type="line"/>
      <point x="543" y="166" type="line"/>
    </contour>
    <contour>
      <point x="303" y="510" type="line"/>
      <point x="173" y="697" type="line"/>
      <point x="132" y="668" type="line"/>
      <point x="248" y="500" type="line"/>
    </contour>
  </outline>
</glyph>
<glyph name="section" format="1">
  <advance width="1105"/>
  <unicode hex="00A7"/>
  <outline>
    <contour>
      <point x="172" y="665" type="line"/>
      <point x="175" y="567" smooth="yes"/>
      <point x="340" y="505" smooth="yes"/>
      <point x="506" y="467" type="curve" smooth="yes"/>
      <point x="680" y="427" smooth="yes"/>
      <point x="844" y="414" smooth="yes"/>
      <point x="844" y="300" type="curve" smooth="yes"/>
      <point x="844" y="297"/>
      <point x="839" y="298"/>
      <point x="839" y="295" type="curve"/>
      <point x="790" y="350" smooth="yes"/>
      <point x="730" y="365" smooth="yes"/>
      <point x="604" y="394" type="curve" smooth="yes"/>
      <point x="296" y="465" smooth="yes"/>
      <point x="152" y="521" smooth="yes"/>
      <point x="152" y="614" type="curve" smooth="yes"/>
      <point x="152" y="630"/>
      <point x="155" y="647"/>
      <point x="165" y="665" type="curve"/>
    </contour>
    <contour>
      <point x="172" y="265" type="line"/>
      <point x="175" y="167" smooth="yes"/>
      <point x="340" y="105" smooth="yes"/>
      <point x="506" y="67" type="curve" smooth="yes"/>
      <point x="680" y="27" smooth="yes"/>
      <point x="844" y="14" smooth="yes"/>
      <point x="844" y="-100" type="curve" smooth="yes"/>
      <point x="844" y="-103"/>
      <point x="839" y="-102"/>
      <point x="839" y="-105" type="curve"/>
      <point x="790" y="-50" smooth="yes"/>
      <point x="730" y="-35" smooth="yes"/>
      <point x="604" y="-6" type="curve" smooth="yes"/>
      <point x="296" y="65" smooth="yes"/>
      <point x="152" y="121" smooth="yes"/>
      <point x="152" y="214" type="curve" smooth="yes"/>
      <point x="152" y="230"/>
      <point x="155" y="247"/>
      <point x="165" y="265" type="curve"/>
    </contour>
    <contour>
      <point x="1011" y="398" type="curve" smooth="yes"/>
      <point x="1011" y="668" smooth="yes"/>
      <point x="386" y="599" smooth="yes"/>
      <point x="386" y="711" type="curve" smooth="yes"/>
      <point x="386" y="751" smooth="yes"/>
      <point x="432" y="761" smooth="yes"/>
      <point x="490" y="761" type="curve" smooth="yes"/>
      <point x="610" y="761"/>
      <point x="836" y="690"/>
      <point x="936" y="593" type="curve"/>
      <point x="980" y="593" type="line"/>
      <point x="980" y="784" type="line"/>
      <point x="935" y="784" type="line"/>
      <point x="931" y="773"/>
      <point x="924" y="759"/>
      <point x="920" y="741" type="curve"/>
      <point x="809" y="770" smooth="yes"/>
      <point x="670" y="801" smooth="yes"/>
      <point x="485" y="801" type="curve" smooth="yes"/>
      <point x="337" y="801" smooth="yes"/>
      <point x="95" y="798" smooth="yes"/>
      <point x="95" y="602" type="curve" smooth="yes"/>
      <point x="95" y="496"/>
      <point x="242" y="440"/>
      <point x="396" y="399" type="curve"/>
      <point x="256" y="393" smooth="yes"/>
      <point x="95" y="362" smooth="yes"/>
      <point x="95" y="202" type="curve" smooth="yes"/>
      <point x="95" y="-19" smooth="yes"/>
      <point x="742" y="-26" smooth="yes"/>
      <point x="742" y="-119" type="curve" smooth="yes" name="hr01"/>
      <point x="742" y="-152" smooth="yes"/>
      <point x="668" y="-158" smooth="yes"/>
      <point x="604" y="-158" type="curve" smooth="yes"/>
      <point x="385" y="-158"/>
      <point x="174" y="-18"/>
      <point x="139" y="63" type="curve"/>
      <point x="94" y="63" type="line"/>
      <point x="94" y="-181" type="line"/>
      <point x="139" y="-181" type="line"/>
      <point x="162" y="-132" type="line"/>
      <point x="299" y="-173" smooth="yes"/>
      <point x="423" y="-199" smooth="yes"/>
      <point x="605" y="-199" type="curve" smooth="yes"/>
      <point x="852" y="-199" smooth="yes"/>
      <point x="1011" y="-142" smooth="yes"/>
      <point x="1011" y="-2" type="curve" smooth="yes"/>
      <point x="1011" y="123"/>
      <point x="875" y="176"/>
      <point x="731" y="207" type="curve"/>
      <point x="904" y="224" smooth="yes"/>
      <point x="1011" y="283" smooth="yes"/>
    </contour>
    <contour>
      <point x="742" y="281" type="curve" smooth="yes"/>
      <point x="742" y="248" smooth="yes"/>
      <point x="668" y="242" smooth="yes"/>
      <point x="604" y="242" type="curve" smooth="yes"/>
      <point x="561" y="242" smooth="yes"/>
      <point x="386" y="249" smooth="yes"/>
      <point x="386" y="311" type="curve" smooth="yes"/>
      <point x="386" y="351" smooth="yes"/>
      <point x="432" y="361" smooth="yes"/>
      <point x="490" y="361" type="curve" smooth="yes"/>
      <point x="512" y="361" smooth="yes"/>
      <point x="742" y="343" smooth="yes"/>
    </contour>
    <contour>
      <point x="366" y="381" type="line"/>
      <point x="396" y="381" type="line"/>
      <point x="396" y="427" type="line"/>
      <point x="366" y="427" type="line"/>
    </contour>
    <contour>
      <point x="731" y="183" type="line"/>
      <point x="761" y="183" type="line"/>
      <point x="761" y="231" type="line"/>
      <point x="731" y="231" type="line"/>
    </contour>
  </outline>
</glyph>
<glyph name="copyright" format="1">
  <advance width="775"/>
  <unicode hex="00A9"/>
  <outline>
    <contour>
      <point x="80" y="457" type="curve" smooth="yes"/>
      <point x="80" y="581" smooth="yes"/>
      <point x="219" y="688" smooth="yes"/>
      <point x="388" y="688" type="curve" smooth="yes"/>
      <point x="557" y="688" smooth="yes"/>
      <point x="695" y="581" smooth="yes"/>
      <point x="695" y="457" type="curve" smooth="yes"/>
      <point x="695" y="333" smooth="yes"/>
      <point x="557" y="226" smooth="yes"/>
      <point x="388" y="226" type="curve" smooth="yes"/>
      <point x="219" y="226" smooth="yes"/>
      <point x="80" y="333" smooth="yes"/>
    </contour>
    <contour>
      <point x="504" y="348" type="curve" smooth="yes"/>
      <point x="524" y="361" smooth="yes"/>
      <point x="535" y="372" smooth="yes"/>
      <point x="535" y="380" type="curve" smooth="yes"/>
      <point x="535" y="387" smooth="yes"/>
      <point x="531" y="388" smooth="yes"/>
      <point x="528" y="388" type="curve" smooth="yes"/>
      <point x="517" y="388" smooth="yes"/>
      <point x="487" y="339" smooth="yes"/>
      <point x="411" y="339" type="curve" smooth="yes"/>
      <point x="367" y="339" smooth="yes"/>
      <point x="352" y="362" smooth="yes"/>
      <point x="352" y="415" type="curve" smooth="yes"/>
      <point x="352" y="415" smooth="yes"/>
      <point x="352" y="503" smooth="yes"/>
      <point x="352" y="525" type="curve" smooth="yes"/>
      <point x="352" y="558" smooth="yes"/>
      <point x="362" y="583" smooth="yes"/>
      <point x="397" y="583" type="curve" smooth="yes"/>
      <point x="445" y="583"/>
      <point x="491" y="535"/>
      <point x="507" y="495" type="curve"/>
      <point x="521" y="495" type="line"/>
      <point x="521" y="591" type="line"/>
      <point x="507" y="591" type="line"/>
      <point x="507" y="571" type="line"/>
      <point x="476" y="586" smooth="yes"/>
      <point x="439" y="601" smooth="yes"/>
      <point x="399" y="601" type="curve" smooth="yes"/>
      <point x="315" y="601" smooth="yes"/>
      <point x="217" y="563" smooth="yes"/>
      <point x="217" y="462" type="curve" smooth="yes" name="hr01"/>
      <point x="217" y="363" smooth="yes"/>
      <point x="307" y="322" smooth="yes"/>
      <point x="410" y="322" type="curve" smooth="yes"/>
      <point x="455" y="322" smooth="yes"/>
      <point x="484" y="335" smooth="yes"/>
    </contour>
    <contour>
      <point x="45" y="457" type="curve" smooth="yes" name="hr02"/>
      <point x="45" y="311" smooth="yes"/>
      <point x="199" y="192" smooth="yes"/>
      <point x="388" y="192" type="curve" smooth="yes"/>
      <point x="577" y="192" smooth="yes"/>
      <point x="730" y="311" smooth="yes"/>
      <point x="730" y="457" type="curve" smooth="yes"/>
      <point x="730" y="603" smooth="yes"/>
      <point x="577" y="722" smooth="yes"/>
      <point x="388" y="722" type="curve" smooth="yes"/>
      <point x="199" y="722" smooth="yes"/>
      <point x="45" y="603" smooth="yes"/>
    </contour>
  </outline>
</glyph>
<glyph name="logicalnot" format="1">
  <advance width="740"/>
  <unicode hex="00AC"/>
  <outline>
    <contour>
      <point x="100" y="378" type="line" name="hr00"/>
      <point x="100" y="298" type="line"/>
      <point x="562" y="298" type="line"/>
      <point x="562" y="108" type="line"/>
      <point x="640" y="108" type="line"/>
      <point x="640" y="378" type="line"/>
    </contour>
  </outline>
</glyph>
<glyph name="AE" format="1">
  <advance width="1833"/>
  <unicode hex="00C6"/>
  <outline>
    <contour>
      <point x="1277" y="605" type="curve" smooth="yes"/>
      <point x="1524" y="605"/>
      <point x="1659" y="507"/>
      <point x="1724" y="420" type="curve"/>
      <point x="1753" y="420" type="line"/>
      <point x="1753" y="650" type="line"/>
      <point x="546" y="650" type="line"/>
      <point x="546" y="607" type="line"/>
      <point x="666" y="607" type="line" smooth="yes"/>
      <point x="747" y="607" smooth="yes"/>
      <point x="775" y="566" smooth="yes"/>
      <point x="775" y="507" type="curve" smooth="yes"/>
      <point x="775" y="151" type="line" smooth="yes"/>
      <point x="775" y="71" smooth="yes"/>
      <point x="727" y="43" smooth="yes"/>
      <point x="666" y="43" type="curve" smooth="yes"/>
      <point x="546" y="43" type="line"/>
      <point x="546" y="0" type="line"/>
      <point x="1753" y="0" type="line"/>
      <point x="1753" y="212" type="line"/>
      <point x="1724" y="212" type="line"/>
      <point x="1602" y="48" smooth="yes"/>
      <point x="1420" y="43" smooth="yes"/>
      <point x="1275" y="43" type="curve" smooth="yes"/>
      <point x="1250" y="43" type="line" smooth="yes"/>
      <point x="1170" y="43" smooth="yes"/>
      <point x="1164" y="99" smooth="yes"/>
      <point x="1164" y="187" type="curve" smooth="yes"/>
      <point x="1164" y="223" type="line" smooth="yes"/>
      <point x="1164" y="265" smooth="yes"/>
      <point x="1184" y="312" smooth="yes"/>
      <point x="1252" y="312" type="curve" smooth="yes"/>
      <point x="1339" y="312"/>
      <point x="1462" y="270"/>
      <point x="1495" y="194" type="curve"/>
      <point x="1532" y="194" type="line"/>
      <point x="1532" y="499" type="line"/>
      <point x="1495" y="499" type="line"/>
      <point x="1462" y="428" smooth="yes"/>
      <point x="1339" y="372" smooth="yes"/>
      <point x="1252" y="372" type="curve" smooth="yes"/>
      <point x="1174" y="372" smooth="yes"/>
      <point x="1164" y="433" smooth="yes"/>
      <point x="1164" y="474" type="curve" smooth="yes"/>
      <point x="1164" y="508" type="line" smooth="yes"/>
      <point x="1164" y="565" smooth="yes"/>
      <point x="1207" y="605" smooth="yes"/>
    </contour>
    <contour>
      <point x="908" y="43" type="line"/>
      <point x="842" y="43" type="line"/>
      <point x="842" y="607" type="line"/>
      <point x="908" y="607" type="line"/>
    </contour>
    <contour>
      <point x="371" y="312" type="line"/>
      <point x="786" y="312" type="line"/>
      <point x="786" y="372" type="line"/>
      <point x="371" y="372" type="line"/>
    </contour>
    <contour>
      <point x="234" y="650" type="line"/>
      <point x="234" y="607" type="line"/>
      <point x="313" y="607" type="line" smooth="yes"/>
      <point x="378" y="607" smooth="yes"/>
      <point x="406" y="589" smooth="yes"/>
      <point x="436" y="553" type="curve" smooth="yes"/>
      <point x="461" y="522" type="line"/>
      <point x="204" y="195" type="line" smooth="yes"/>
      <point x="204" y="194"/>
      <point x="97" y="43"/>
      <point x="-14" y="43" type="curve"/>
      <point x="-14" y="0" type="line"/>
      <point x="422" y="0" type="line"/>
      <point x="422" y="43" type="line"/>
      <point x="329" y="43" type="line" smooth="yes"/>
      <point x="286" y="43" smooth="yes"/>
      <point x="254" y="68" smooth="yes"/>
      <point x="254" y="112" type="curve" smooth="yes"/>
      <point x="254" y="135" smooth="yes"/>
      <point x="260" y="165" smooth="yes"/>
      <point x="283" y="194" type="curve" smooth="yes"/>
      <point x="638" y="650" type="line"/>
    </contour>
  </outline>
</glyph>
<glyph name="Eth" format="1">
  <advance width="1469"/>
  <unicode hex="00D0"/>
  <outline>
    <contour>
      <point x="876" y="365" type="line" name="hr00"/>
      <point x="510" y="365" type="line"/>
      <point x="510" y="285" type="line"/>
      <point x="876" y="285" type="line"/>
    </contour>
    <contour>
      <point x="324" y="365" type="line"/>
      <point x="148" y="365" type="line"/>
      <point x="148" y="285" type="line"/>
      <point x="324" y="285" type="line"/>
    </contour>
    <component  base="D"/>
  </outline>
</glyph>
<glyph name="Thorn" format="1">
  <advance width="1447"/>
  <unicode hex="00DE"/>
  <outline>
    <contour>
      <point x="744" y="187" type="line" smooth="yes" name="hr00"/>
      <point x="716" y="187" smooth="yes"/>
      <point x="694" y="210" smooth="yes"/>
      <point x="694" y="237" type="curve" smooth="yes"/>
      <point x="694" y="413" type="line" smooth="yes"/>
      <point x="694" y="441" smooth="yes"/>
      <point x="716" y="464" smooth="yes"/>
      <point x="744" y="464" type="curve" smooth="yes"/>
      <point x="845" y="464" type="line" smooth="yes"/>
      <point x="900" y="464" smooth="yes"/>
      <point x="1009" y="429" smooth="yes"/>
      <point x="1009" y="326" type="curve" smooth="yes"/>
      <point x="1009" y="223" smooth="yes"/>
      <point x="900" y="187" smooth="yes"/>
      <point x="845" y="187" type="curve" smooth="yes"/>
    </contour>
    <contour>
      <point x="1156" y="326" type="curve"/>
      <point x="1156" y="269"/>
      <point x="1112" y="209"/>
      <point x="1060" y="191" type="curve"/>
      <point x="1055" y="194" type="line"/>
      <point x="1079" y="231" smooth="yes"/>
      <point x="1087" y="280" smooth="yes"/>
      <point x="1087" y="326" type="curve" smooth="yes"/>
      <point x="1087" y="372"/>
      <point x="1079" y="421"/>
      <point x="1055" y="458" type="curve"/>
      <point x="1060" y="461" type="line"/>
      <point x="1112" y="443" smooth="yes"/>
      <point x="1156" y="383" smooth="yes"/>
    </contour>
    <contour>
      <point x="693" y="607" type="line"/>
      <point x="924" y="607" type="line"/>
      <point x="924" y="650" type="line"/>
      <point x="73" y="650" type="line"/>
      <point x="73" y="607" type="line"/>
      <point x="195" y="607" type="line" smooth="yes"/>
      <point x="255" y="607" smooth="yes"/>
      <point x="304" y="556" smooth="yes"/>
      <point x="304" y="497" type="curve" smooth="yes"/>
      <point x="304" y="151" type="line" smooth="yes"/>
      <point x="304" y="71" smooth="yes"/>
      <point x="255" y="43" smooth="yes"/>
      <point x="195" y="43" type="curve" smooth="yes"/>
      <point x="73" y="43" type="line"/>
      <point x="73" y="0" type="line"/>
      <point x="924" y="0" type="line"/>
      <point x="924" y="43" type="line"/>
      <point x="693" y="43" type="line"/>
      <point x="693" y="74" type="line" smooth="yes"/>
      <point x="693" y="123" smooth="yes"/>
      <point x="711" y="142" smooth="yes"/>
      <point x="748" y="142" type="curve" smooth="yes"/>
      <point x="1121" y="142" type="line" smooth="yes"/>
      <point x="1299" y="142" smooth="yes"/>
      <point x="1433" y="190" smooth="yes"/>
      <point x="1433" y="327" type="curve" smooth="yes"/>
      <point x="1433" y="488" smooth="yes"/>
      <point x="1228" y="509" smooth="yes"/>
      <point x="1081" y="509" type="curve" smooth="yes"/>
      <point x="748" y="509" type="line" smooth="yes"/>
      <point x="711" y="509" smooth="yes"/>
      <point x="693" y="528" smooth="yes"/>
      <point x="693" y="577" type="curve" smooth="yes"/>
    </contour>
    <contour>
      <point x="436" y="43" type="line"/>
      <point x="371" y="43" type="line"/>
      <point x="371" y="607" type="line"/>
      <point x="436" y="607" type="line"/>
    </contour>
  </outline>
</glyph>
<glyph name="germandbls" format="1">
  <advance width="1250"/>
  <unicode hex="00DF"/>
  <outline>
    <contour>
      <point x="896" y="29" type="line"/>
      <point x="926" y="72" smooth="yes"/>
      <point x="937" y="132" smooth="yes"/>
      <point x="937" y="172" type="curve" smooth="yes"/>
      <point x="937" y="214"/>
      <point x="924" y="284"/>
      <point x="886" y="325" type="curve"/>
      <point x="890" y="330" type="line"/>
      <point x="954" y="285" smooth="yes"/>
      <point x="984" y="228" smooth="yes"/>
      <point x="984" y="172" type="curve" smooth="yes"/>
      <point x="984" y="119"/>
      <point x="956" y="64"/>
      <point x="900" y="25" type="curve"/>
    </contour>
    <contour>
      <point x="827" y="427" type="curve"/>
      <point x="822" y="430" type="line"/>
      <point x="854" y="464" smooth="yes"/>
      <point x="876" y="506" smooth="yes"/>
      <point x="876" y="544" type="curve" smooth="yes"/>
      <point x="876" y="567"/>
      <point x="869" y="591"/>
      <point x="859" y="612" type="curve"/>
      <point x="864" y="615" type="line"/>
      <point x="901" y="594" smooth="yes"/>
      <point x="924" y="563" smooth="yes"/>
      <point x="924" y="531" type="curve" smooth="yes" name="hr01"/>
      <point x="924" y="486"/>
      <point x="871" y="448"/>
    </contour>
    <contour>
      <point x="448" y="595" type="line"/>
      <point x="383" y="537" smooth="yes"/>
      <point x="382" y="449" smooth="yes"/>
      <point x="382" y="405" type="curve" smooth="yes"/>
      <point x="382" y="43" type="line"/>
      <point x="331" y="43" type="line"/>
      <point x="331" y="396" type="line" smooth="yes"/>
      <point x="331" y="436"/>
      <point x="333" y="540"/>
      <point x="446" y="602" type="curve"/>
    </contour>
    <contour>
      <point x="269" y="131" type="line" smooth="yes"/>
      <point x="269" y="65" smooth="yes"/>
      <point x="228" y="43" smooth="yes"/>
      <point x="179" y="43" type="curve" smooth="yes"/>
      <point x="73" y="43" type="line"/>
      <point x="73" y="0" type="line"/>
      <point x="606" y="0" type="line"/>
      <point x="606" y="550" type="line" smooth="yes"/>
      <point x="606" y="616" smooth="yes"/>
      <point x="661" y="650" smooth="yes"/>
      <point x="717" y="650" type="curve" smooth="yes"/>
      <point x="771" y="650" smooth="yes"/>
      <point x="825" y="617" smooth="yes"/>
      <point x="825" y="550" type="curve" smooth="yes" name="hr02"/>
      <point x="825" y="485"/>
      <point x="783" y="427"/>
      <point x="702" y="395" type="curve"/>
      <point x="702" y="367" type="line"/>
      <point x="816" y="342" smooth="yes"/>
      <point x="884" y="273" smooth="yes"/>
      <point x="884" y="180" type="curve" smooth="yes" name="hr03"/>
      <point x="884" y="90" smooth="yes"/>
      <point x="835" y="18" smooth="yes"/>
      <point x="740" y="18" type="curve" smooth="yes"/>
      <point x="715" y="18"/>
      <point x="691" y="20"/>
      <point x="666" y="25" type="curve"/>
      <point x="661" y="-17" type="line"/>
      <point x="695" y="-20" smooth="yes"/>
      <point x="731" y="-22" smooth="yes"/>
      <point x="767" y="-22" type="curve" smooth="yes"/>
      <point x="1039" y="-22" smooth="yes"/>
      <point x="1250" y="56" smooth="yes"/>
      <point x="1250" y="183" type="curve" smooth="yes"/>
      <point x="1250" y="275"/>
      <point x="1118" y="361"/>
      <point x="887" y="379" type="curve"/>
      <point x="887" y="384" type="line"/>
      <point x="976" y="420" smooth="yes"/>
      <point x="1018" y="484" smooth="yes"/>
      <point x="1018" y="537" type="curve" smooth="yes" name="hr04"/>
      <point x="1018" y="633" smooth="yes"/>
      <point x="868" y="694" smooth="yes"/>
      <point x="696" y="694" type="curve" smooth="yes"/>
      <point x="476" y="694"/>
      <point x="356" y="644"/>
      <point x="286" y="558" type="curve"/>
      <point x="73" y="558" type="line"/>
      <point x="73" y="515" type="line"/>
      <point x="179" y="515" type="line" smooth="yes"/>
      <point x="227" y="515" smooth="yes"/>
      <point x="269" y="475" smooth="yes"/>
      <point x="269" y="428" type="curve" smooth="yes"/>
    </contour>
  </outline>
</glyph>
<glyph name="ae" format="1">
  <advance width="1572"/>
  <unicode hex="00E6"/>
  <outline>
    <contour>
      <point x="883" y="547" type="curve"/>
      <point x="829" y="565" smooth="yes"/>
      <point x="715" y="580" smooth="yes"/>
      <point x="606" y="580" type="curve" smooth="yes"/>
      <point x="445" y="580"/>
      <point x="311" y="566"/>
      <point x="183" y="527" type="curve"/>
      <point x="179" y="539"/>
      <point x="172" y="568"/>
      <point x="169" y="579" type="curve" name="hr01"/>
      <point x="127" y="579" type="line"/>
      <point x="127" y="425" type="line"/>
      <point x="168" y="425" type="line"/>
      <point x="221" y="462" smooth="yes"/>
      <point x="346" y="525" smooth="yes"/>
      <point x="479" y="525" type="curve" smooth="yes"/>
      <point x="627" y="525"/>
      <point x="639" y="432"/>
      <point x="639" y="384" type="curve"/>
      <point x="551" y="388" smooth="yes"/>
      <point x="468" y="390" smooth="yes"/>
      <point x="337" y="390" type="curve" smooth="yes"/>
      <point x="138" y="390" smooth="yes"/>
      <point x="60" y="289" smooth="yes"/>
      <point x="60" y="187" type="curve" smooth="yes"/>
      <point x="60" y="83" smooth="yes"/>
      <point x="135" y="-22" smooth="yes"/>
      <point x="337" y="-22" type="curve" smooth="yes"/>
      <point x="436" y="-22"/>
      <point x="585" y="2"/>
      <point x="715" y="102" type="curve"/>
      <point x="807" y="16" smooth="yes"/>
      <point x="973" y="-22" smooth="yes"/>
      <point x="1156" y="-22" type="curve" smooth="yes"/>
      <point x="1310" y="-22" smooth="yes"/>
      <point x="1532" y="51" smooth="yes"/>
      <point x="1532" y="103" type="curve" smooth="yes"/>
      <point x="1532" y="119" smooth="yes"/>
      <point x="1517" y="123" smooth="yes"/>
      <point x="1509" y="123" type="curve" smooth="yes"/>
      <point x="1484" y="123" smooth="yes"/>
      <point x="1371" y="26" smooth="yes"/>
      <point x="1176" y="26" type="curve" smooth="yes"/>
      <point x="1054" y="26" smooth="yes"/>
      <point x="1010" y="108" smooth="yes"/>
      <point x="1010" y="279" type="curve" smooth="yes"/>
      <point x="1010" y="449" smooth="yes"/>
      <point x="1041" y="536" smooth="yes"/>
      <point x="1127" y="536" type="curve" smooth="yes"/>
      <point x="1200" y="536" smooth="yes"/>
      <point x="1239" y="470" smooth="yes"/>
      <point x="1239" y="402" type="curve" smooth="yes"/>
      <point x="1239" y="330" smooth="yes"/>
      <point x="1195" y="259" smooth="yes"/>
      <point x="1115" y="259" type="curve" smooth="yes"/>
      <point x="915" y="259" type="line"/>
      <point x="915" y="199" type="line"/>
      <point x="1115" y="199" type="line" smooth="yes"/>
      <point x="1429" y="199" smooth="yes"/>
      <point x="1512" y="296" smooth="yes"/>
      <point x="1512" y="389" type="curve" smooth="yes"/>
      <point x="1512" y="484" smooth="yes"/>
      <point x="1427" y="579" smooth="yes"/>
      <point x="1106" y="579" type="curve" smooth="yes"/>
      <point x="1032" y="579"/>
      <point x="954" y="569"/>
    </contour>
    <contour>
      <point x="369" y="8" type="line"/>
      <point x="201" y="8" smooth="yes"/>
      <point x="115" y="97" smooth="yes"/>
      <point x="115" y="187" type="curve" smooth="yes"/>
      <point x="115" y="274"/>
      <point x="199" y="361"/>
      <point x="370" y="361" type="curve"/>
      <point x="370" y="355" type="line"/>
      <point x="245" y="355" smooth="yes"/>
      <point x="183" y="269" smooth="yes"/>
      <point x="183" y="187" type="curve" smooth="yes"/>
      <point x="183" y="102"/>
      <point x="246" y="14"/>
      <point x="369" y="14" type="curve"/>
    </contour>
    <contour>
      <point x="770" y="278" type="curve" smooth="yes"/>
      <point x="770" y="158"/>
      <point x="867" y="70"/>
      <point x="1003" y="30" type="curve"/>
      <point x="1001" y="20" type="line"/>
      <point x="826" y="61" smooth="yes"/>
      <point x="702" y="154" smooth="yes"/>
      <point x="702" y="278" type="curve" smooth="yes"/>
      <point x="702" y="402"/>
      <point x="826" y="495"/>
      <point x="1002" y="534" type="curve"/>
      <point x="1004" y="525" type="line"/>
      <point x="867" y="485" smooth="yes"/>
      <point x="770" y="399" smooth="yes"/>
    </contour>
    <contour>
      <point x="1207" y="545" type="line"/>
      <point x="1302" y="519" smooth="yes"/>
      <point x="1353" y="462" smooth="yes"/>
      <point x="1353" y="402" type="curve" smooth="yes"/>
      <point x="1353" y="341"/>
      <point x="1304" y="280"/>
      <point x="1212" y="252" type="curve"/>
      <point x="1209" y="261" type="line"/>
      <point x="1270" y="292" smooth="yes"/>
      <point x="1302" y="348" smooth="yes"/>
      <point x="1302" y="402" type="curve" smooth="yes"/>
      <point x="1302" y="457"/>
      <point x="1269" y="509"/>
      <point x="1205" y="537" type="curve"/>
    </contour>
    <contour>
      <point x="680" y="142" type="curve"/>
      <point x="629" y="108" smooth="yes"/>
      <point x="579" y="92" smooth="yes"/>
      <point x="536" y="92" type="curve" smooth="yes" name="hr02"/>
      <point x="466" y="92" smooth="yes"/>
      <point x="417" y="133" smooth="yes"/>
      <point x="417" y="207" type="curve" smooth="yes"/>
      <point x="417" y="268" smooth="yes"/>
      <point x="456" y="335" smooth="yes"/>
      <point x="538" y="335" type="curve" smooth="yes"/>
      <point x="569" y="335"/>
      <point x="605" y="332"/>
      <point x="640" y="331" type="curve"/>
      <point x="640" y="278" type="line" smooth="yes"/>
      <point x="640" y="225"/>
      <point x="654" y="180"/>
    </contour>
  </outline>
</glyph>
<glyph name="eth" format="1">
  <advance width="1102"/>
  <unicode hex="00F0"/>
  <outline>
    <contour>
      <point x="688" y="500" type="curve"/>
      <point x="642" y="509" smooth="yes"/>
      <point x="592" y="515" smooth="yes"/>
      <point x="539" y="515" type="curve" smooth="yes"/>
      <point x="240" y="515" smooth="yes"/>
      <point x="50" y="391" smooth="yes"/>
      <point x="50" y="245" type="curve" smooth="yes"/>
      <point x="50" y="98" smooth="yes"/>
      <point x="261" y="-22" smooth="yes"/>
      <point x="520" y="-22" type="curve" smooth="yes"/>
      <point x="887" y="-22" smooth="yes"/>
      <point x="1052" y="169" smooth="yes"/>
      <point x="1052" y="360" type="curve" smooth="yes"/>
      <point x="1052" y="635" smooth="yes"/>
      <point x="808" y="749" smooth="yes"/>
      <point x="561" y="749" type="curve" smooth="yes"/>
      <point x="413" y="749"/>
      <point x="296" y="721"/>
      <point x="185" y="687" type="curve"/>
      <point x="185" y="724" type="line"/>
      <point x="150" y="724" type="line" name="hr01"/>
      <point x="150" y="566" type="line"/>
      <point x="185" y="566" type="line"/>
      <point x="185" y="566" smooth="yes"/>
      <point x="341" y="706" smooth="yes"/>
      <point x="494" y="706" type="curve" smooth="yes"/>
      <point x="646" y="706"/>
      <point x="688" y="607"/>
    </contour>
    <contour>
      <point x="560" y="471" type="curve" smooth="yes"/>
      <point x="669" y="471" smooth="yes"/>
      <point x="699" y="391" smooth="yes"/>
      <point x="699" y="244" type="curve" smooth="yes"/>
      <point x="699" y="97" smooth="yes"/>
      <point x="648" y="21" smooth="yes"/>
      <point x="560" y="21" type="curve" smooth="yes"/>
      <point x="472" y="21" smooth="yes"/>
      <point x="421" y="97" smooth="yes"/>
      <point x="421" y="244" type="curve" smooth="yes"/>
      <point x="421" y="391" smooth="yes"/>
      <point x="451" y="471" smooth="yes"/>
    </contour>
    <contour>
      <point x="158" y="245" type="curve" smooth="yes"/>
      <point x="158" y="142"/>
      <point x="265" y="63"/>
      <point x="414" y="29" type="curve"/>
      <point x="412" y="22" type="line"/>
      <point x="224" y="57" smooth="yes"/>
      <point x="90" y="138" smooth="yes"/>
      <point x="90" y="245" type="curve" smooth="yes"/>
      <point x="90" y="352"/>
      <point x="224" y="433"/>
      <point x="413" y="467" type="curve"/>
      <point x="415" y="462" type="line"/>
      <point x="265" y="428" smooth="yes"/>
      <point x="158" y="349" smooth="yes"/>
    </contour>
    <contour>
      <point x="719" y="661" type="line"/>
      <point x="788" y="588" smooth="yes"/>
      <point x="831" y="481" smooth="yes"/>
      <point x="831" y="360" type="curve" smooth="yes"/>
      <point x="831" y="238"/>
      <point x="787" y="132"/>
      <point x="718" y="58" type="curve"/>
      <point x="714" y="62" type="line"/>
      <point x="744" y="154" smooth="yes"/>
      <point x="762" y="253" smooth="yes"/>
      <point x="762" y="360" type="curve" smooth="yes"/>
      <point x="762" y="467"/>
      <point x="744" y="568"/>
      <point x="715" y="657" type="curve"/>
    </contour>
    <contour>
      <point x="681" y="669" type="line"/>
      <point x="464" y="626" type="line"/>
      <point x="464" y="566" type="line"/>
      <point x="695" y="612" type="line"/>
    </contour>
    <contour>
      <point x="820" y="637" type="line"/>
      <point x="1082" y="689" type="line"/>
      <point x="1082" y="749" type="line"/>
      <point x="774" y="688" type="line"/>
    </contour>
  </outline>
</glyph>
<glyph name="oslash" format="1">
  <advance width="1099"/>
  <unicode hex="00F8"/>
  <outline>
    <contour>
      <point x="428" y="-69" type="line" name="hr00"/>
      <point x="722" y="628" type="line"/>
      <point x="670" y="628" type="line"/>
      <point x="376" y="-69" type="line"/>
    </contour>
    <component  base="o"/>
  </outline>
</glyph>
<glyph name="thorn" format="1">
  <advance width="1190"/>
  <unicode hex="00FE"/>
  <outline>
    <contour>
      <point x="523" y="61" type="line" name="hr00"/>
      <point x="589" y="3" smooth="yes"/>
      <point x="681" y="-22" smooth="yes"/>
      <point x="775" y="-22" type="curve" smooth="yes"/>
      <point x="1012" y="-22" smooth="yes"/>
      <point x="1140" y="140" smooth="yes"/>
      <point x="1140" y="296" type="curve" smooth="yes"/>
      <point x="1140" y="441" smooth="yes"/>
      <point x="1029" y="580" smooth="yes"/>
      <point x="796" y="580" type="curve" smooth="yes"/>
      <point x="698" y="580"/>
      <point x="588" y="546"/>
      <point x="523" y="490" type="curve"/>
      <point x="523" y="720" type="line"/>
      <point x="30" y="720" type="line"/>
      <point x="30" y="677" type="line"/>
      <point x="96" y="677" type="line" smooth="yes"/>
      <point x="145" y="677" smooth="yes"/>
      <point x="185" y="654" smooth="yes"/>
      <point x="185" y="588" type="curve" smooth="yes"/>
      <point x="185" y="-68" type="line" smooth="yes"/>
      <point x="185" y="-134" smooth="yes"/>
      <point x="144" y="-157" smooth="yes"/>
      <point x="95" y="-157" type="curve" smooth="yes"/>
      <point x="30" y="-157" type="line"/>
      <point x="30" y="-200" type="line"/>
      <point x="702" y="-200" type="line"/>
      <point x="702" y="-157" type="line"/>
      <point x="603" y="-157" type="line" smooth="yes"/>
      <point x="559" y="-157" smooth="yes"/>
      <point x="523" y="-134" smooth="yes"/>
      <point x="523" y="-68" type="curve" smooth="yes"/>
    </contour>
    <contour>
      <point x="647" y="62" type="curve" smooth="yes"/>
      <point x="589" y="62"/>
      <point x="540" y="104"/>
      <point x="523" y="126" type="curve"/>
      <point x="523" y="427" type="line"/>
      <point x="549" y="467" smooth="yes"/>
      <point x="593" y="504" smooth="yes"/>
      <point x="647" y="504" type="curve" smooth="yes"/>
      <point x="726" y="504" smooth="yes"/>
      <point x="771" y="433" smooth="yes"/>
      <point x="771" y="296" type="curve" smooth="yes"/>
      <point x="771" y="160" smooth="yes"/>
      <point x="744" y="62" smooth="yes"/>
    </contour>
    <contour>
      <point x="298" y="-157" type="line"/>
      <point x="247" y="-157" type="line"/>
      <point x="247" y="677" type="line"/>
      <point x="298" y="677" type="line"/>
    </contour>
    <contour>
      <point x="721" y="48" type="line"/>
      <point x="808" y="89" smooth="yes"/>
      <point x="834" y="186" smooth="yes"/>
      <point x="834" y="296" type="curve" smooth="yes"/>
      <point x="834" y="400"/>
      <point x="794" y="480"/>
      <point x="722" y="515" type="curve"/>
      <point x="725" y="525" type="line"/>
      <point x="829" y="494" smooth="yes"/>
      <point x="886" y="411" smooth="yes"/>
      <point x="886" y="296" type="curve" smooth="yes"/>
      <point x="886" y="177"/>
      <point x="849" y="76"/>
      <point x="726" y="41" type="curve"/>
    </contour>
  </outline>
</glyph>
<glyph name="lslash" format="1">
  <advance width="729"/>
  <unicode hex="0142"/>
  <outline>
    <contour>
      <point x="696" y="498" type="line" name="hr00"/>
      <point x="330" y="380" type="line"/>
      <point x="330" y="300" type="line"/>
      <point x="696" y="418" type="line"/>
    </contour>
    <contour>
      <point x="257" y="356" type="line"/>
      <point x="58" y="292" type="line"/>
      <point x="58" y="212" type="line"/>
      <point x="257" y="276" type="line"/>
    </contour>
    <component  base="l"/>
  </outline>
</glyph>
<glyph name="OE" format="1">
  <advance width="1938"/>
  <unicode hex="0152"/>
  <outline>
    <contour>
      <point x="672" y="43" type="line" smooth="yes" name="hr00"/>
      <point x="542" y="43" smooth="yes"/>
      <point x="465" y="139" smooth="yes"/>
      <point x="465" y="325" type="curve" smooth="yes"/>
      <point x="465" y="510" smooth="yes"/>
      <point x="509" y="607" smooth="yes"/>
      <point x="672" y="607" type="curve" smooth="yes"/>
      <point x="771" y="607" type="line" smooth="yes"/>
      <point x="832" y="607" smooth="yes"/>
      <point x="880" y="556" smooth="yes"/>
      <point x="880" y="497" type="curve" smooth="yes"/>
      <point x="880" y="151" type="line" smooth="yes"/>
      <point x="880" y="71" smooth="yes"/>
      <point x="832" y="43" smooth="yes"/>
      <point x="771" y="43" type="curve" smooth="yes"/>
    </contour>
    <contour>
      <point x="1858" y="0" type="line"/>
      <point x="1858" y="212" type="line"/>
      <point x="1829" y="212" type="line"/>
      <point x="1707" y="48" smooth="yes"/>
      <point x="1525" y="43" smooth="yes"/>
      <point x="1380" y="43" type="curve" smooth="yes"/>
      <point x="1355" y="43" type="line" smooth="yes"/>
      <point x="1275" y="43" smooth="yes"/>
      <point x="1269" y="99" smooth="yes"/>
      <point x="1269" y="187" type="curve" smooth="yes"/>
      <point x="1269" y="223" type="line" smooth="yes"/>
      <point x="1269" y="265" smooth="yes"/>
      <point x="1289" y="312" smooth="yes"/>
      <point x="1357" y="312" type="curve" smooth="yes"/>
      <point x="1444" y="312"/>
      <point x="1567" y="270"/>
      <point x="1600" y="194" type="curve"/>
      <point x="1637" y="194" type="line"/>
      <point x="1637" y="499" type="line"/>
      <point x="1600" y="499" type="line"/>
      <point x="1567" y="428" smooth="yes"/>
      <point x="1444" y="372" smooth="yes"/>
      <point x="1357" y="372" type="curve" smooth="yes"/>
      <point x="1279" y="372" smooth="yes"/>
      <point x="1269" y="433" smooth="yes"/>
      <point x="1269" y="474" type="curve" smooth="yes"/>
      <point x="1269" y="508" type="line" smooth="yes"/>
      <point x="1269" y="565" smooth="yes"/>
      <point x="1312" y="605" smooth="yes"/>
      <point x="1382" y="605" type="curve" smooth="yes"/>
      <point x="1629" y="605"/>
      <point x="1764" y="507"/>
      <point x="1829" y="420" type="curve"/>
      <point x="1858" y="420" type="line"/>
      <point x="1858" y="650" type="line"/>
      <point x="672" y="650" type="line" smooth="yes"/>
      <point x="274" y="650" smooth="yes"/>
      <point x="22" y="505" smooth="yes"/>
      <point x="22" y="326" type="curve" smooth="yes"/>
      <point x="22" y="146" smooth="yes"/>
      <point x="313" y="0" smooth="yes"/>
      <point x="672" y="0" type="curve" smooth="yes"/>
    </contour>
    <contour>
      <point x="384" y="60" type="line"/>
      <point x="200" y="116" smooth="yes"/>
      <point x="76" y="202" smooth="yes"/>
      <point x="76" y="325" type="curve" smooth="yes"/>
      <point x="76" y="449"/>
      <point x="202" y="536"/>
      <point x="388" y="591" type="curve"/>
      <point x="389" y="587" type="line"/>
      <point x="246" y="531" smooth="yes"/>
      <point x="149" y="445" smooth="yes"/>
      <point x="149" y="325" type="curve" smooth="yes"/>
      <point x="149" y="205"/>
      <point x="244" y="120"/>
      <point x="385" y="64" type="curve"/>
    </contour>
    <contour>
      <point x="1013" y="43" type="line"/>
      <point x="947" y="43" type="line"/>
      <point x="947" y="607" type="line"/>
      <point x="1013" y="607" type="line"/>
    </contour>
  </outline>
</glyph>
<glyph name="oslashacute" format="1">
  <advance width="1099"/>
  <unicode hex="01FF"/>
  <outline>
    <contour>
      <point x="428" y="-49" type="line" name="hr00"/>
      <point x="722" y="608" type="line"/>
      <point x="670" y="608" type="line"/>
      <point x="376" y="-49" type="line"/>
    </contour>
    <component  base="o"/>
    <component  base="acute" xOffset="274"/>
  </outline>
</glyph>
<glyph name="dotaccent" format="1">
  <advance width="374"/>
  <unicode hex="02D9"/>
  <outline>
    <contour>
      <point x="324" y="706" type="curve" name="hr00"/>
      <point x="324" y="769" smooth="yes"/>
      <point x="263" y="821" smooth="yes"/>
      <point x="186" y="821" type="curve" smooth="yes"/>
      <point x="111" y="821" smooth="yes"/>
      <point x="50" y="769" smooth="yes"/>
      <point x="50" y="706" type="curve" smooth="yes"/>
      <point x="50" y="643" smooth="yes"/>
      <point x="111" y="593" smooth="yes"/>
      <point x="186" y="593" type="curve" smooth="yes"/>
      <point x="263" y="593" smooth="yes"/>
      <point x="324" y="643" smooth="yes"/>
    </contour>
    <contour>
      <point x="112" y="706" type="curve"/>
      <point x="112" y="675"/>
      <point x="123" y="647"/>
      <point x="139" y="628" type="curve"/>
      <point x="137" y="625" type="line"/>
      <point x="102" y="641" smooth="yes"/>
      <point x="77" y="673" smooth="yes"/>
      <point x="77" y="706" type="curve" smooth="yes"/>
      <point x="77" y="739"/>
      <point x="102" y="771"/>
      <point x="137" y="787" type="curve"/>
      <point x="139" y="784" type="line"/>
      <point x="123" y="765" smooth="yes"/>
      <point x="112" y="737" smooth="yes"/>
    </contour>
  </outline>
</glyph>
<glyph name="hungarumlaut" format="1">
  <advance width="929"/>
  <unicode hex="02DD"/>
  <outline>
    <contour>
      <point x="336" y="642" type="curve" smooth="yes" name="hr00"/>
      <point x="457" y="673"/>
      <point x="480" y="770"/>
      <point x="480" y="770" type="curve"/>
      <point x="239" y="770" type="line"/>
      <point x="197" y="700"/>
      <point x="152" y="660"/>
      <point x="50" y="660" type="curve"/>
      <point x="50" y="624" type="line"/>
      <point x="65" y="624" type="line" smooth="yes"/>
      <point x="138" y="624" smooth="yes"/>
      <point x="266" y="625" smooth="yes"/>
    </contour>
    <contour>
      <point x="178" y="667" type="line"/>
      <point x="208" y="677"/>
      <point x="261" y="705"/>
      <point x="279" y="742" type="curve"/>
      <point x="343" y="742" type="line"/>
      <point x="326" y="717"/>
      <point x="282" y="668"/>
      <point x="178" y="663" type="curve"/>
    </contour>
    <contour>
      <point x="735" y="642" type="curve" smooth="yes"/>
      <point x="856" y="673"/>
      <point x="879" y="770"/>
      <point x="879" y="770" type="curve"/>
      <point x="638" y="770" type="line"/>
      <point x="596" y="700"/>
      <point x="551" y="660"/>
      <point x="449" y="660" type="curve"/>
      <point x="449" y="624" type="line"/>
      <point x="464" y="624" type="line" smooth="yes"/>
      <point x="537" y="624" smooth="yes"/>
      <point x="665" y="625" smooth="yes"/>
    </contour>
    <contour>
      <point x="577" y="667" type="line"/>
      <point x="607" y="677"/>
      <point x="660" y="705"/>
      <point x="678" y="742" type="curve"/>
      <point x="742" y="742" type="line"/>
      <point x="725" y="717"/>
      <point x="681" y="668"/>
      <point x="577" y="663" type="curve"/>
    </contour>
  </outline>
</glyph>
<glyph name="quoteright" format="1">
  <advance width="524"/>
  <unicode hex="2019"/>
  <outline>
    <contour>
      <point x="150" y="544" type="curve" smooth="yes" name="hr00"/>
      <point x="150" y="511"/>
      <point x="165" y="481"/>
      <point x="187" y="460" type="curve"/>
      <point x="184" y="456" type="line"/>
      <point x="135" y="474" smooth="yes"/>
      <point x="101" y="508" smooth="yes"/>
      <point x="101" y="544" type="curve" smooth="yes"/>
      <point x="101" y="580"/>
      <point x="135" y="614"/>
      <point x="184" y="632" type="curve"/>
      <point x="187" y="628" type="line"/>
      <point x="165" y="607" smooth="yes"/>
      <point x="150" y="577" smooth="yes"/>
    </contour>
    <contour>
      <point x="266" y="670" type="curve" smooth="yes"/>
      <point x="152" y="670" smooth="yes"/>
      <point x="60" y="613" smooth="yes"/>
      <point x="60" y="544" type="curve" smooth="yes"/>
      <point x="60" y="475" smooth="yes"/>
      <point x="152" y="419" smooth="yes"/>
      <point x="266" y="419" type="curve" smooth="yes"/>
      <point x="302" y="419"/>
      <point x="335" y="426"/>
      <point x="365" y="436" type="curve"/>
      <point x="346" y="341"/>
      <point x="177" y="327"/>
      <point x="98" y="327" type="curve"/>
      <point x="98" y="290" type="line"/>
      <point x="353" y="290" smooth="yes"/>
      <point x="464" y="407" smooth="yes"/>
      <point x="464" y="511" type="curve" smooth="yes"/>
      <point x="464" y="595" smooth="yes"/>
      <point x="393" y="670" smooth="yes"/>
    </contour>
  </outline>
</glyph>
<glyph name="ellipsis" format="1">
  <advance width="1782"/>
  <unicode hex="2026"/>
  <outline>
    <contour>
      <point x="501" y="103" type="curve" smooth="yes" name="hr00"/>
      <point x="501" y="172" smooth="yes"/>
      <point x="409" y="229" smooth="yes"/>
      <point x="296" y="229" type="curve" smooth="yes"/>
      <point x="183" y="229" smooth="yes"/>
      <point x="91" y="172" smooth="yes"/>
      <point x="91" y="103" type="curve" smooth="yes"/>
      <point x="91" y="34" smooth="yes"/>
      <point x="183" y="-22" smooth="yes"/>
      <point x="296" y="-22" type="curve" smooth="yes"/>
      <point x="409" y="-22" smooth="yes"/>
      <point x="501" y="34" smooth="yes"/>
    </contour>
    <contour>
      <point x="180" y="103" type="curve"/>
      <point x="180" y="70"/>
      <point x="195" y="40"/>
      <point x="217" y="19" type="curve"/>
      <point x="214" y="15" type="line"/>
      <point x="165" y="33" smooth="yes"/>
      <point x="131" y="67" smooth="yes"/>
      <point x="131" y="103" type="curve" smooth="yes"/>
      <point x="131" y="139"/>
      <point x="165" y="173"/>
      <point x="214" y="191" type="curve"/>
      <point x="217" y="187" type="line"/>
      <point x="195" y="166" smooth="yes"/>
      <point x="180" y="136" smooth="yes"/>
    </contour>
    <contour>
      <point x="1095" y="103" type="curve" smooth="yes"/>
      <point x="1095" y="172" smooth="yes"/>
      <point x="1003" y="229" smooth="yes"/>
      <point x="890" y="229" type="curve" smooth="yes"/>
      <point x="777" y="229" smooth="yes"/>
      <point x="685" y="172" smooth="yes"/>
      <point x="685" y="103" type="curve" smooth="yes"/>
      <point x="685" y="34" smooth="yes"/>
      <point x="777" y="-22" smooth="yes"/>
      <point x="890" y="-22" type="curve" smooth="yes"/>
      <point x="1003" y="-22" smooth="yes"/>
      <point x="1095" y="34" smooth="yes"/>
    </contour>
    <contour>
      <point x="774" y="103" type="curve"/>
      <point x="774" y="70"/>
      <point x="789" y="40"/>
      <point x="811" y="19" type="curve"/>
      <point x="808" y="15" type="line"/>
      <point x="759" y="33" smooth="yes"/>
      <point x="725" y="67" smooth="yes"/>
      <point x="725" y="103" type="curve" smooth="yes"/>
      <point x="725" y="139"/>
      <point x="759" y="173"/>
      <point x="808" y="191" type="curve"/>
      <point x="811" y="187" type="line"/>
      <point x="789" y="166" smooth="yes"/>
      <point x="774" y="136" smooth="yes"/>
    </contour>
    <contour>
      <point x="1689" y="103" type="curve" smooth="yes"/>
      <point x="1689" y="172" smooth="yes"/>
      <point x="1597" y="229" smooth="yes"/>
      <point x="1484" y="229" type="curve" smooth="yes"/>
      <point x="1371" y="229" smooth="yes"/>
      <point x="1279" y="172" smooth="yes"/>
      <point x="1279" y="103" type="curve" smooth="yes"/>
      <point x="1279" y="34" smooth="yes"/>
      <point x="1371" y="-22" smooth="yes"/>
      <point x="1484" y="-22" type="curve" smooth="yes"/>
      <point x="1597" y="-22" smooth="yes"/>
      <point x="1689" y="34" smooth="yes"/>
    </contour>
    <contour>
      <point x="1368" y="103" type="curve"/>
      <point x="1368" y="70"/>
      <point x="1383" y="40"/>
      <point x="1405" y="19" type="curve"/>
      <point x="1402" y="15" type="line"/>
      <point x="1353" y="33" smooth="yes"/>
      <point x="1319" y="67" smooth="yes"/>
      <point x="1319" y="103" type="curve" smooth="yes"/>
      <point x="1319" y="139"/>
      <point x="1353" y="173"/>
      <point x="1402" y="191" type="curve"/>
      <point x="1405" y="187" type="line"/>
      <point x="1383" y="166" smooth="yes"/>
      <point x="1368" y="136" smooth="yes"/>
    </contour>
  </outline>
</glyph>
<glyph name="guilsinglleft" format="1">
  <advance width="353"/>
  <unicode hex="2039"/>
  <outline>
    <contour>
      <point x="0" y="258" type="line" name="hr00"/>
      <point x="273" y="8" type="line"/>
      <point x="273" y="255" type="line"/>
      <point x="161" y="359" type="line"/>
      <point x="273" y="462" type="line"/>
      <point x="273" y="549" type="line"/>
      <point x="0" y="300" type="line"/>
    </contour>
    <contour>
      <point x="235" y="181" type="line"/>
      <point x="235" y="119" type="line"/>
      <point x="66" y="272" type="line"/>
      <point x="100" y="303" type="line"/>
    </contour>
  </outline>
</glyph>
<glyph name="twoinferior" format="1">
  <advance width="555"/>
  <unicode hex="2082"/>
  <outline>
    <contour>
      <point x="494" y="85" type="line"/>
      <point x="390" y="53"/>
      <point x="275" y="34"/>
      <point x="103" y="29" type="curve"/>
      <point x="103" y="35" type="line"/>
      <point x="271" y="79" smooth="yes"/>
      <point x="524" y="161" smooth="yes"/>
      <point x="524" y="261" type="curve" smooth="yes"/>
      <point x="524" y="350" smooth="yes"/>
      <point x="357" y="367" smooth="yes"/>
      <point x="284" y="367" type="curve" smooth="yes"/>
      <point x="178" y="367"/>
      <point x="108" y="342"/>
      <point x="71" y="325" type="curve"/>
      <point x="71" y="351" type="line"/>
      <point x="44" y="351" type="line"/>
      <point x="44" y="197" type="line"/>
      <point x="71" y="197" type="line"/>
      <point x="84" y="266" smooth="yes"/>
      <point x="164" y="339" smooth="yes"/>
      <point x="247" y="339" type="curve" smooth="yes"/>
      <point x="263" y="339" smooth="yes"/>
      <point x="320" y="335" smooth="yes"/>
      <point x="320" y="257" type="curve" smooth="yes"/>
      <point x="320" y="148"/>
      <point x="117" y="68"/>
      <point x="25" y="41" type="curve"/>
      <point x="25" y="0" type="line"/>
      <point x="521" y="0" type="line"/>
      <point x="521" y="132" type="line"/>
      <point x="494" y="132" type="line"/>
    </contour>
    <contour>
      <point x="333" y="346" type="line"/>
      <point x="364" y="334" smooth="yes"/>
      <point x="400" y="303" smooth="yes"/>
      <point x="400" y="257" type="curve" smooth="yes" name="hr01"/>
      <point x="400" y="165"/>
      <point x="309" y="143"/>
      <point x="309" y="143" type="curve"/>
      <point x="307" y="147" type="line"/>
      <point x="349" y="180" smooth="yes"/>
      <point x="360" y="229" smooth="yes"/>
      <point x="360" y="257" type="curve" smooth="yes"/>
      <point x="360" y="315"/>
      <point x="330" y="343"/>
      <point x="330" y="343" type="curve"/>
    </contour>
  </outline>
</glyph>
<glyph name="sixinferior" format="1">
  <advance width="603"/>
  <unicode hex="2086"/>
  <outline>
    <contour>
      <point x="492" y="339" type="line"/>
      <point x="492" y="339" smooth="yes"/>
      <point x="419" y="367" smooth="yes"/>
      <point x="311" y="367" type="curve" smooth="yes"/>
      <point x="160" y="367" smooth="yes"/>
      <point x="28" y="293" smooth="yes"/>
      <point x="28" y="178" type="curve" smooth="yes"/>
      <point x="28" y="63" smooth="yes"/>
      <point x="164" y="-12" smooth="yes"/>
      <point x="296" y="-12" type="curve" smooth="yes"/>
      <point x="429" y="-12" smooth="yes"/>
      <point x="571" y="29" smooth="yes"/>
      <point x="571" y="121" type="curve" smooth="yes"/>
      <point x="571" y="197" smooth="yes"/>
      <point x="464" y="235" smooth="yes"/>
      <point x="376" y="235" type="curve" smooth="yes"/>
      <point x="302" y="235"/>
      <point x="239" y="212"/>
      <point x="220" y="204" type="curve"/>
      <point x="222" y="287" smooth="yes"/>
      <point x="250" y="339" smooth="yes"/>
      <point x="328" y="339" type="curve" smooth="yes"/>
      <point x="409" y="339"/>
      <point x="494" y="259"/>
      <point x="494" y="259" type="curve"/>
      <point x="519" y="259" type="line"/>
      <point x="519" y="356" type="line"/>
      <point x="492" y="356" type="line"/>
    </contour>
    <contour>
      <point x="219" y="174" type="line"/>
      <point x="219" y="174" smooth="yes"/>
      <point x="278" y="203" smooth="yes"/>
      <point x="319" y="203" type="curve" smooth="yes"/>
      <point x="366" y="203" smooth="yes"/>
      <point x="384" y="157" smooth="yes"/>
      <point x="384" y="115" type="curve" smooth="yes"/>
      <point x="384" y="86" smooth="yes"/>
      <point x="383" y="15" smooth="yes"/>
      <point x="299" y="15" type="curve" smooth="yes"/>
      <point x="223" y="15"/>
      <point x="219" y="86"/>
      <point x="219" y="153" type="curve"/>
    </contour>
    <contour>
      <point x="424" y="115" type="curve" smooth="yes"/>
      <point x="424" y="149"/>
      <point x="412" y="180"/>
      <point x="393" y="201" type="curve"/>
      <point x="396" y="203" type="line"/>
      <point x="436" y="186" smooth="yes"/>
      <point x="464" y="151" smooth="yes"/>
      <point x="464" y="115" type="curve" smooth="yes" name="hr01"/>
      <point x="464" y="79"/>
      <point x="436" y="44"/>
      <point x="396" y="27" type="curve"/>
      <point x="393" y="30" type="line"/>
      <point x="412" y="50" smooth="yes"/>
      <point x="424" y="82" smooth="yes"/>
    </contour>
    <contour>
      <point x="108" y="178" type="curve" smooth="yes"/>
      <point x="108" y="128"/>
      <point x="142" y="58"/>
      <point x="205" y="18" type="curve"/>
      <point x="204" y="15" type="line"/>
      <point x="118" y="48" smooth="yes"/>
      <point x="68" y="112" smooth="yes"/>
      <point x="68" y="178" type="curve" smooth="yes"/>
      <point x="68" y="244"/>
      <point x="118" y="308"/>
      <point x="204" y="341" type="curve"/>
      <point x="205" y="338" type="line"/>
      <point x="142" y="298" smooth="yes"/>
      <point x="108" y="228" smooth="yes"/>
    </contour>
  </outline>
</glyph>
<glyph name="seveninferior" format="1">
  <advance width="608"/>
  <unicode hex="2087"/>
  <outline>
    <contour>
      <point x="23" y="360" type="line" name="hr00"/>
      <point x="23" y="218" type="line"/>
      <point x="45" y="218" type="line"/>
      <point x="141" y="325" smooth="yes"/>
      <point x="261" y="338" smooth="yes"/>
      <point x="314" y="338" type="curve" smooth="yes"/>
      <point x="323" y="338"/>
      <point x="331" y="338"/>
      <point x="336" y="337" type="curve"/>
      <point x="336" y="337"/>
      <point x="277" y="279"/>
      <point x="231" y="199" type="curve"/>
      <point x="129" y="199" type="line"/>
      <point x="129" y="169" type="line"/>
      <point x="215" y="169" type="line"/>
      <point x="191" y="120"/>
      <point x="173" y="62"/>
      <point x="173" y="0" type="curve"/>
      <point x="444" y="0" type="line"/>
      <point x="444" y="29" type="line"/>
      <point x="363" y="29" type="line"/>
      <point x="362" y="43" smooth="yes"/>
      <point x="361" y="53" smooth="yes"/>
      <point x="361" y="66" type="curve" smooth="yes"/>
      <point x="361" y="103"/>
      <point x="369" y="139"/>
      <point x="381" y="169" type="curve"/>
      <point x="473" y="169" type="line"/>
      <point x="473" y="199" type="line"/>
      <point x="394" y="199" type="line"/>
      <point x="442" y="291"/>
      <point x="523" y="329"/>
      <point x="523" y="329" type="curve"/>
      <point x="576" y="329" type="line"/>
      <point x="576" y="360" type="line"/>
    </contour>
    <contour>
      <point x="405" y="329" type="line"/>
      <point x="371" y="296"/>
      <point x="252" y="170"/>
      <point x="252" y="29" type="curve"/>
      <point x="214" y="29" type="line"/>
      <point x="214" y="161"/>
      <point x="338" y="299"/>
      <point x="369" y="329" type="curve"/>
    </contour>
    <contour>
      <point x="93" y="296" type="line"/>
      <point x="63" y="274" type="line"/>
      <point x="63" y="329" type="line"/>
      <point x="93" y="329" type="line"/>
    </contour>
  </outline>
</glyph>
<glyph name="lira" format="1">
  <advance width="1109"/>
  <unicode hex="20A4"/>
  <outline>
    <contour>
      <point x="623" y="116" type="line"/>
      <point x="715" y="85" smooth="yes"/>
      <point x="812" y="61" smooth="yes"/>
      <point x="915" y="61" type="curve" smooth="yes"/>
      <point x="1031" y="61" smooth="yes"/>
      <point x="1034" y="180" smooth="yes"/>
      <point x="1063" y="180" type="curve" smooth="yes"/>
      <point x="1083" y="180" smooth="yes"/>
      <point x="1094" y="140" smooth="yes"/>
      <point x="1094" y="105" type="curve" smooth="yes"/>
      <point x="1094" y="50" smooth="yes"/>
      <point x="1068" y="-22" smooth="yes"/>
      <point x="970" y="-22" type="curve" smooth="yes"/>
      <point x="875" y="-22"/>
      <point x="743" y="30"/>
      <point x="603" y="85" type="curve"/>
    </contour>
    <contour>
      <point x="455" y="130" type="line"/>
      <point x="396" y="142" smooth="yes"/>
      <point x="339" y="150" smooth="yes"/>
      <point x="289" y="150" type="curve" smooth="yes"/>
      <point x="208" y="150" smooth="yes"/>
      <point x="141" y="125" smooth="yes"/>
      <point x="141" y="89" type="curve" smooth="yes"/>
      <point x="141" y="51" smooth="yes"/>
      <point x="192" y="32" smooth="yes"/>
      <point x="250" y="32" type="curve" smooth="yes"/>
      <point x="331" y="32" smooth="yes"/>
      <point x="429" y="68" smooth="yes"/>
      <point x="429" y="135" type="curve" smooth="yes"/>
      <point x="429" y="250" smooth="yes"/>
      <point x="151" y="369" smooth="yes"/>
      <point x="151" y="508" type="curve" smooth="yes"/>
      <point x="151" y="646" smooth="yes"/>
      <point x="385" y="671" smooth="yes"/>
      <point x="577" y="671" type="curve" smooth="yes"/>
      <point x="768" y="671"/>
      <point x="922" y="610"/>
      <point x="922" y="610" type="curve"/>
      <point x="922" y="671" type="line"/>
      <point x="970" y="671" type="line"/>
      <point x="970" y="486" type="line"/>
      <point x="921" y="486" type="line"/>
      <point x="780" y="598" smooth="yes"/>
      <point x="684" y="619" smooth="yes"/>
      <point x="591" y="619" type="curve" smooth="yes"/>
      <point x="499" y="619" smooth="yes"/>
      <point x="476" y="581" smooth="yes"/>
      <point x="476" y="549" type="curve" smooth="yes"/>
      <point x="476" y="457" smooth="yes"/>
      <point x="772" y="364" smooth="yes"/>
      <point x="772" y="175" type="curve" smooth="yes"/>
      <point x="772" y="-18" smooth="yes"/>
      <point x="486" y="-22" smooth="yes"/>
      <point x="336" y="-22" type="curve" smooth="yes"/>
      <point x="251" y="-22" smooth="yes"/>
      <point x="45" y="-21" smooth="yes"/>
      <point x="45" y="83" type="curve" smooth="yes"/>
      <point x="45" y="137" smooth="yes"/>
      <point x="130" y="192" smooth="yes"/>
      <point x="289" y="192" type="curve" smooth="yes"/>
      <point x="340" y="192"/>
      <point x="390" y="186"/>
      <point x="442" y="175" type="curve"/>
    </contour>
    <contour>
      <point x="398" y="30" type="line"/>
      <point x="477" y="39" smooth="yes"/>
      <point x="536" y="88" smooth="yes"/>
      <point x="536" y="164" type="curve" smooth="yes"/>
      <point x="536" y="314" smooth="yes"/>
      <point x="261" y="454" smooth="yes"/>
      <point x="261" y="535" type="curve" smooth="yes"/>
      <point x="261" y="565"/>
      <point x="275" y="589"/>
      <point x="287" y="602" type="curve"/>
      <point x="284" y="607" type="line"/>
      <point x="261" y="598" smooth="yes"/>
      <point x="218" y="573" smooth="yes"/>
      <point x="218" y="523" type="curve" smooth="yes"/>
      <point x="218" y="420" smooth="yes"/>
      <point x="488" y="272" smooth="yes"/>
      <point x="488" y="160" type="curve" smooth="yes"/>
      <point x="488" y="84"/>
      <point x="428" y="49"/>
      <point x="396" y="36" type="curve"/>
    </contour>
    <contour>
      <point x="65" y="425" type="line"/>
      <point x="255" y="425" type="line"/>
      <point x="255" y="375" type="line"/>
      <point x="65" y="375" type="line"/>
    </contour>
    <contour>
      <point x="572" y="425" type="line"/>
      <point x="858" y="425" type="line"/>
      <point x="858" y="375" type="line"/>
      <point x="572" y="375" type="line"/>
    </contour>
    <contour>
      <point x="65" y="305" type="line"/>
      <point x="365" y="305" type="line"/>
      <point x="365" y="255" type="line"/>
      <point x="65" y="255" type="line"/>
    </contour>
    <contour>
      <point x="592" y="305" type="line"/>
      <point x="858" y="305" type="line"/>
      <point x="858" y="255" type="line"/>
      <point x="592" y="255" type="line"/>
    </contour>
  </outline>
</glyph>
<glyph name="Delta" format="1">
  <advance width="1180"/>
  <unicode hex="2206"/>
  <outline>
    <contour>
      <point x="416" y="801" type="line" name="hr00"/>
      <point x="50" y="43" type="line"/>
      <point x="50" y="0" type="line"/>
      <point x="1130" y="0" type="line"/>
      <point x="1130" y="43" type="line"/>
      <point x="710" y="801" type="line"/>
    </contour>
    <contour>
      <point x="121" y="43" type="line"/>
      <point x="404" y="625" type="line"/>
      <point x="726" y="43" type="line"/>
    </contour>
    <contour>
      <point x="794" y="43" type="line"/>
      <point x="471" y="626" type="line"/>
      <point x="553" y="626" type="line"/>
      <point x="876" y="43" type="line"/>
    </contour>
  </outline>
</glyph>
<glyph name="minus" format="1">
  <advance width="740"/>
  <unicode hex="2212"/>
  <outline>
    <contour>
      <point x="640" y="378" type="line" name="hr00"/>
      <point x="100" y="378" type="line"/>
      <point x="100" y="298" type="line"/>
      <point x="640" y="298" type="line"/>
    </contour>
  </outline>
</glyph>
<glyph name="integral" format="1">
  <advance width="784"/>
  <unicode hex="222B"/>
  <outline>
    <contour>
      <point x="328" y="31" type="line" smooth="yes" name="hr00"/>
      <point x="328" y="-68"/>
      <point x="291" y="-102"/>
      <point x="264" y="-113" type="curve"/>
      <point x="264" y="571" type="line" smooth="yes"/>
      <point x="264" y="670"/>
      <point x="301" y="704"/>
      <point x="328" y="715" type="curve"/>
    </contour>
    <contour>
      <point x="630" y="801" type="curve" smooth="yes"/>
      <point x="291" y="801" smooth="yes"/>
      <point x="197" y="719" smooth="yes"/>
      <point x="197" y="583" type="curve" smooth="yes"/>
      <point x="197" y="-48" type="line" smooth="yes"/>
      <point x="197" y="-128" smooth="yes"/>
      <point x="147" y="-156" smooth="yes"/>
      <point x="88" y="-156" type="curve" smooth="yes"/>
      <point x="76" y="-156"/>
      <point x="63" y="-155"/>
      <point x="55" y="-154" type="curve"/>
      <point x="50" y="-194" type="line"/>
      <point x="83" y="-197" smooth="yes"/>
      <point x="118" y="-199" smooth="yes"/>
      <point x="154" y="-199" type="curve" smooth="yes"/>
      <point x="493" y="-199" smooth="yes"/>
      <point x="587" y="-117" smooth="yes"/>
      <point x="587" y="19" type="curve" smooth="yes"/>
      <point x="587" y="650" type="line" smooth="yes"/>
      <point x="587" y="730" smooth="yes"/>
      <point x="637" y="758" smooth="yes"/>
      <point x="696" y="758" type="curve" smooth="yes"/>
      <point x="708" y="758"/>
      <point x="721" y="757"/>
      <point x="729" y="756" type="curve"/>
      <point x="734" y="796" type="line"/>
      <point x="701" y="799" smooth="yes"/>
      <point x="666" y="801" smooth="yes"/>
    </contour>
  </outline>
</glyph>
<glyph name="L.alt" format="1">
  <advance width="1249"/>
  <outline>
    <contour>
      <point x="692" y="497" type="line" smooth="yes" name="hr00"/>
      <point x="692" y="556"/>
      <point x="741" y="607"/>
      <point x="801" y="607" type="curve"/>
      <point x="801" y="650" type="line"/>
      <point x="73" y="650" type="line"/>
      <point x="73" y="607" type="line"/>
      <point x="193" y="607" type="line" smooth="yes"/>
      <point x="253" y="607" smooth="yes"/>
      <point x="301" y="556" smooth="yes"/>
      <point x="301" y="497" type="curve" smooth="yes"/>
      <point x="301" y="151" type="line" smooth="yes"/>
      <point x="301" y="71" smooth="yes"/>
      <point x="253" y="43" smooth="yes"/>
      <point x="193" y="43" type="curve" smooth="yes"/>
      <point x="73" y="43" type="line"/>
      <point x="73" y="0" type="line"/>
      <point x="1236" y="0" type="line"/>
      <point x="1236" y="288" type="line"/>
      <point x="1202" y="288" type="line"/>
      <point x="1059" y="85" smooth="yes"/>
      <point x="900" y="43" smooth="yes"/>
      <point x="801" y="43" type="curve" smooth="yes"/>
      <point x="715" y="43" smooth="yes"/>
      <point x="692" y="92" smooth="yes"/>
      <point x="692" y="151" type="curve" smooth="yes"/>
    </contour>
    <contour>
      <point x="434" y="43" type="line"/>
      <point x="369" y="43" type="line"/>
      <point x="369" y="607" type="line"/>
      <point x="434" y="607" type="line"/>
    </contour>
  </outline>
</glyph>
<glyph name="caron.case" format="1">
  <advance width="691"/>
  <outline>
    <contour>
      <point x="508" y="716" type="line" name="hr00"/>
      <point x="641" y="862" type="line"/>
      <point x="554" y="862" type="line"/>
      <point x="451" y="750" type="line"/>
      <point x="347" y="862" type="line"/>
      <point x="50" y="862" type="line"/>
      <point x="184" y="716" type="line"/>
    </contour>
    <contour>
      <point x="236" y="741" type="line"/>
      <point x="161" y="824" type="line"/>
      <point x="223" y="824" type="line"/>
      <point x="298" y="741" type="line"/>
    </contour>
  </outline>
</glyph>
<glyph name="caron.salt" format="1">
  <advance width="274"/>
  <outline>
    <contour>
      <point x="75" y="832" type="curve" name="hr00"/>
      <point x="75" y="801"/>
      <point x="86" y="773"/>
      <point x="102" y="754" type="curve"/>
      <point x="100" y="751" type="line"/>
      <point x="65" y="767" smooth="yes"/>
      <point x="40" y="799" smooth="yes"/>
      <point x="40" y="832" type="curve" smooth="yes"/>
      <point x="40" y="865"/>
      <point x="65" y="897"/>
      <point x="100" y="913" type="curve"/>
      <point x="102" y="910" type="line"/>
      <point x="86" y="891" smooth="yes"/>
      <point x="75" y="863" smooth="yes"/>
    </contour>
    <contour>
      <point x="0" y="832" type="curve" smooth="yes"/>
      <point x="0" y="769" smooth="yes"/>
      <point x="61" y="717" smooth="yes"/>
      <point x="138" y="717" type="curve" smooth="yes"/>
      <point x="153" y="717"/>
      <point x="168" y="719"/>
      <point x="181" y="723" type="curve"/>
      <point x="152" y="664"/>
      <point x="58" y="645"/>
      <point x="10" y="645" type="curve"/>
      <point x="10" y="608" type="line"/>
      <point x="206" y="621" smooth="yes"/>
      <point x="274" y="726" smooth="yes"/>
      <point x="274" y="824" type="curve" smooth="yes"/>
      <point x="274" y="895" smooth="yes"/>
      <point x="213" y="945" smooth="yes"/>
      <point x="138" y="945" type="curve" smooth="yes"/>
      <point x="61" y="945" smooth="yes"/>
      <point x="0" y="895" smooth="yes"/>
    </contour>
  </outline>
</glyph>
<glyph name="commaaccent" format="1">
  <advance width="274"/>
  <outline>
    <contour>
      <point x="75" y="-172" type="curve" name="hr00"/>
      <point x="75" y="-203"/>
      <point x="86" y="-231"/>
      <point x="102" y="-250" type="curve"/>
      <point x="100" y="-253" type="line"/>
      <point x="65" y="-237" smooth="yes"/>
      <point x="40" y="-205" smooth="yes"/>
      <point x="40" y="-172" type="curve" smooth="yes"/>
      <point x="40" y="-139"/>
      <point x="65" y="-107"/>
      <point x="100" y="-91" type="curve"/>
      <point x="102" y="-94" type="line"/>
      <point x="86" y="-113" smooth="yes"/>
      <point x="75" y="-141" smooth="yes"/>
    </contour>
    <contour>
      <point x="0" y="-172" type="curve" smooth="yes"/>
      <point x="0" y="-235" smooth="yes"/>
      <point x="61" y="-287" smooth="yes"/>
      <point x="138" y="-287" type="curve" smooth="yes"/>
      <point x="153" y="-287"/>
      <point x="168" y="-285"/>
      <point x="181" y="-281" type="curve"/>
      <point x="152" y="-340"/>
      <point x="58" y="-359"/>
      <point x="10" y="-359" type="curve"/>
      <point x="10" y="-396" type="line"/>
      <point x="206" y="-383" smooth="yes"/>
      <point x="274" y="-278" smooth="yes"/>
      <point x="274" y="-180" type="curve" smooth="yes"/>
      <point x="274" y="-109" smooth="yes"/>
      <point x="213" y="-59" smooth="yes"/>
      <point x="138" y="-59" type="curve" smooth="yes"/>
      <point x="61" y="-59" smooth="yes"/>
      <point x="0" y="-109" smooth="yes"/>
    </contour>
  </outline>
</glyph>
<glyph name="commaaccent.salt" format="1">
  <advance width="274"/>
  <outline>
    <contour>
      <point x="76" y="706" type="curve" smooth="yes" name="hr00"/>
      <point x="76" y="675"/>
      <point x="87" y="647"/>
      <point x="103" y="628" type="curve"/>
      <point x="101" y="625" type="line"/>
      <point x="66" y="641" smooth="yes"/>
      <point x="41" y="673" smooth="yes"/>
      <point x="41" y="706" type="curve" smooth="yes"/>
      <point x="41" y="739"/>
      <point x="66" y="771"/>
      <point x="101" y="787" type="curve"/>
      <point x="103" y="784" type="line"/>
      <point x="87" y="765" smooth="yes"/>
      <point x="76" y="737" smooth="yes"/>
    </contour>
    <contour>
      <point x="274" y="706" type="curve" smooth="yes"/>
      <point x="274" y="769" smooth="yes"/>
      <point x="213" y="821" smooth="yes"/>
      <point x="136" y="821" type="curve" smooth="yes"/>
      <point x="121" y="821"/>
      <point x="106" y="819"/>
      <point x="93" y="815" type="curve"/>
      <point x="122" y="874"/>
      <point x="216" y="893"/>
      <point x="264" y="893" type="curve"/>
      <point x="264" y="930" type="line"/>
      <point x="68" y="917" smooth="yes"/>
      <point x="0" y="812" smooth="yes"/>
      <point x="0" y="714" type="curve" smooth="yes"/>
      <point x="0" y="643" smooth="yes"/>
      <point x="61" y="593" smooth="yes"/>
      <point x="136" y="593" type="curve" smooth="yes"/>
      <point x="213" y="593" smooth="yes"/>
      <point x="274" y="643" smooth="yes"/>
    </contour>
  </outline>
</glyph>
<glyph name="d.alt" format="1">
  <advance width="1190"/>
  <outline>
    <contour>
      <point x="780" y="43" type="line" name="hr00"/>
      <point x="729" y="43" type="line"/>
      <point x="729" y="677" type="line"/>
      <point x="780" y="677" type="line"/>
    </contour>
    <contour>
      <point x="667" y="411" type="line"/>
      <point x="598" y="459" smooth="yes"/>
      <point x="503" y="480" smooth="yes"/>
      <point x="411" y="480" type="curve" smooth="yes"/>
      <point x="176" y="480" smooth="yes"/>
      <point x="50" y="345" smooth="yes"/>
      <point x="50" y="215" type="curve" smooth="yes"/>
      <point x="50" y="94" smooth="yes"/>
      <point x="161" y="-22" smooth="yes"/>
      <point x="394" y="-22" type="curve" smooth="yes"/>
      <point x="492" y="-22"/>
      <point x="602" y="12"/>
      <point x="667" y="68" type="curve"/>
      <point x="667" y="0" type="line"/>
      <point x="1160" y="0" type="line"/>
      <point x="1160" y="36" type="line"/>
      <point x="1094" y="36" type="line" smooth="yes"/>
      <point x="1045" y="36" smooth="yes"/>
      <point x="1005" y="55" smooth="yes"/>
      <point x="1005" y="109" type="curve" smooth="yes"/>
      <point x="1005" y="720" type="line"/>
      <point x="533" y="720" type="line"/>
      <point x="533" y="677" type="line"/>
      <point x="587" y="677" type="line" smooth="yes"/>
      <point x="631" y="677" smooth="yes"/>
      <point x="667" y="636" smooth="yes"/>
      <point x="667" y="588" type="curve" smooth="yes"/>
    </contour>
    <contour>
      <point x="543" y="396" type="curve" smooth="yes"/>
      <point x="601" y="396"/>
      <point x="650" y="366"/>
      <point x="667" y="350" type="curve"/>
      <point x="667" y="131" type="line"/>
      <point x="641" y="91" smooth="yes"/>
      <point x="597" y="54" smooth="yes"/>
      <point x="543" y="54" type="curve" smooth="yes"/>
      <point x="464" y="54" smooth="yes"/>
      <point x="419" y="109" smooth="yes"/>
      <point x="419" y="215" type="curve" smooth="yes"/>
      <point x="419" y="320" smooth="yes"/>
      <point x="446" y="396" smooth="yes"/>
    </contour>
    <contour>
      <point x="407" y="10" type="line"/>
      <point x="208" y="24" smooth="yes"/>
      <point x="113" y="118" smooth="yes"/>
      <point x="113" y="215" type="curve" smooth="yes"/>
      <point x="113" y="316"/>
      <point x="215" y="421"/>
      <point x="405" y="445" type="curve"/>
      <point x="407" y="435" type="line"/>
      <point x="249" y="412" smooth="yes"/>
      <point x="165" y="312" smooth="yes"/>
      <point x="165" y="216" type="curve" smooth="yes"/>
      <point x="165" y="122"/>
      <point x="243" y="33"/>
      <point x="409" y="18" type="curve"/>
    </contour>
  </outline>
</glyph>
<glyph name="ringacute.case" format="1">
  <advance width="374"/>
  <outline>
    <contour>
      <point x="138" y="788" type="curve" smooth="yes" name="hr00"/>
      <point x="138" y="837" smooth="yes"/>
      <point x="160" y="877" smooth="yes"/>
      <point x="186" y="877" type="curve" smooth="yes"/>
      <point x="212" y="877" smooth="yes"/>
      <point x="234" y="837" smooth="yes"/>
      <point x="234" y="788" type="curve" smooth="yes"/>
      <point x="234" y="739" smooth="yes"/>
      <point x="212" y="699" smooth="yes"/>
      <point x="186" y="699" type="curve" smooth="yes"/>
      <point x="160" y="699" smooth="yes"/>
      <point x="138" y="739" smooth="yes"/>
    </contour>
    <contour>
      <point x="101" y="788" type="curve" smooth="yes"/>
      <point x="101" y="756"/>
      <point x="113" y="728"/>
      <point x="132" y="708" type="curve"/>
      <point x="129" y="705" type="line"/>
      <point x="89" y="721" smooth="yes"/>
      <point x="61" y="754" smooth="yes"/>
      <point x="61" y="788" type="curve" smooth="yes"/>
      <point x="61" y="823"/>
      <point x="89" y="857"/>
      <point x="129" y="874" type="curve"/>
      <point x="132" y="871" type="line"/>
      <point x="113" y="850" smooth="yes"/>
      <point x="101" y="820" smooth="yes"/>
    </contour>
    <contour>
      <point x="177" y="900" type="line"/>
      <point x="207" y="910"/>
      <point x="260" y="938"/>
      <point x="278" y="975" type="curve"/>
      <point x="342" y="975" type="line"/>
      <point x="325" y="950"/>
      <point x="282" y="901"/>
      <point x="180" y="896" type="curve"/>
    </contour>
    <contour>
      <point x="445" y="1003" type="curve"/>
      <point x="248" y="1003" type="line"/>
      <point x="204" y="888" smooth="yes"/>
      <point x="29" y="915" smooth="yes"/>
      <point x="29" y="788" type="curve" smooth="yes"/>
      <point x="29" y="721" smooth="yes"/>
      <point x="100" y="668" smooth="yes"/>
      <point x="186" y="668" type="curve" smooth="yes"/>
      <point x="274" y="668" smooth="yes"/>
      <point x="345" y="721" smooth="yes"/>
      <point x="345" y="788" type="curve" smooth="yes"/>
      <point x="345" y="828"/>
      <point x="319" y="863"/>
      <point x="280" y="886" type="curve"/>
      <point x="397" y="900"/>
      <point x="439" y="975"/>
    </contour>
  </outline>
</glyph>
